STARTFONT 2.1
COMMENT
COMMENT Converted from OpenType font "manrope-bold.otf" by "otf2bdf 3.0".
COMMENT
FONT -FreeType-Manrope-Bold-R-Normal--66-480-100-100-P-317-ISO10646-1
SIZE 48 100 100
FONTBOUNDINGBOX 68 86 -3 -17
STARTPROPERTIES 19
FOUNDRY "FreeType"
FAMILY_NAME "Manrope"
WEIGHT_NAME "Bold"
SLANT "R"
SETWIDTH_NAME "Normal"
ADD_STYLE_NAME ""
PIXEL_SIZE 66
POINT_SIZE 480
RESOLUTION_X 100
RESOLUTION_Y 100
SPACING "P"
AVERAGE_WIDTH 317
CHARSET_REGISTRY "ISO10646"
CHARSET_ENCODING "1"
FONT_ASCENT 71
FONT_DESCENT 20
COPYRIGHT "Copyright 2019-2021 The Manrope Project Authors (https://github.com/sharanda/manrope)"
_OTF_FONTFILE "manrope-bold.otf"
_OTF_PSNAME "Manrope-Bold"
ENDPROPERTIES
CHARS 191
STARTCHAR 0020
ENCODING 32
SWIDTH 195 0
DWIDTH 13 0
BBX 0 0 0 0
BITMAP
ENDCHAR
STARTCHAR 0021
ENCODING 33
SWIDTH 360 0
DWIDTH 24 0
BBX 8 48 8 0
BITMAP
FF
FF
FF
FF
FF
FF
FF
FF
FF
FF
FF
FF
FF
FF
FF
FF
FF
FF
FF
FF
FF
FF
FF
FF
FF
FF
FF
FF
FF
FF
FF
FF
FF
FF
FF
FF
00
00
00
00
00
FF
FF
FF
FF
FF
FF
FF
ENDCHAR
STARTCHAR 0022
ENCODING 34
SWIDTH 465 0
DWIDTH 31 0
BBX 20 12 4 36
BITMAP
FF0FF0
FF0FF0
FF0FF0
FF0FF0
FF0FF0
FF0FF0
FF0FF0
FF0FF0
FF0FF0
FF0FF0
FF0FF0
FF0FF0
ENDCHAR
STARTCHAR 0023
ENCODING 35
SWIDTH 930 0
DWIDTH 62 0
BBX 54 48 4 0
BITMAP
000007F807F800
000007F807F800
000007F807F800
00000FF00FF000
00000FF00FF000
00000FF00FF000
00000FF00FF000
00001FE01FE000
00001FE01FE000
00001FE01FE000
00001FC01FC000
00003FC03FC000
03FFFFFFFFFFFC
03FFFFFFFFFFFC
07FFFFFFFFFFF8
07FFFFFFFFFFF8
07FFFFFFFFFFF8
07FFFFFFFFFFF8
0FFFFFFFFFFFF0
0FFFFFFFFFFFF0
0000FF00FF0000
0000FE00FE0000
0001FE01FE0000
0001FE01FE0000
0001FE01FE0000
0001FC01FC0000
0003FC03FC0000
3FFFFFFFFFFFC0
3FFFFFFFFFFFC0
7FFFFFFFFFFF80
7FFFFFFFFFFF80
7FFFFFFFFFFF80
7FFFFFFFFFFF80
FFFFFFFFFFFF00
FFFFFFFFFFFF00
000FF00FF00000
000FE00FE00000
001FE01FE00000
001FE01FE00000
001FE01FE00000
001FC01FC00000
003FC03FC00000
003FC03FC00000
003FC03FC00000
003F807F800000
007F807F800000
007F807F800000
007F807F800000
ENDCHAR
STARTCHAR 0024
ENCODING 36
SWIDTH 630 0
DWIDTH 42 0
BBX 36 62 3 -7
BITMAP
0003FC0000
0003FC0000
0003FC0000
0003FC0000
0003FC0000
0003FC0000
000FFF0000
007FFFE000
01FFFFF800
03FFFFFC00
07FFFFFE00
0FFFFFFF00
1FFFFFFF80
1FFE0FFF80
3FF001FFC0
3FE000FFE0
3FC0007FE0
3FC0003FE0
7F80001FF0
7F80001FF0
7F80000F00
7FC0000000
3FE0000000
3FF0000000
3FFC000000
3FFF800000
1FFFF00000
0FFFFF0000
07FFFFE000
03FFFFF800
01FFFFFE00
007FFFFF00
000FFFFF80
0001FFFFC0
00003FFFE0
000007FFE0
000000FFF0
0000003FF0
0000001FF0
0000000FF0
3F00000FF0
FF00000FF0
FF00000FF0
FF80000FF0
FFC0000FF0
7FE0001FF0
7FF0003FE0
3FF800FFE0
3FFF07FFC0
1FFFFFFFC0
0FFFFFFF80
07FFFFFF00
03FFFFFE00
01FFFFF800
007FFFF000
000FFF8000
0003FC0000
0003FC0000
0003FC0000
0003FC0000
0003FC0000
0003FC0000
ENDCHAR
STARTCHAR 0025
ENCODING 37
SWIDTH 900 0
DWIDTH 60 0
BBX 52 50 4 -1
BITMAP
007E0000000000
03FFC000000800
07FFE000001C00
0FFFF000003E00
1FFFF800007F00
3FFFFC0000FF80
7FFFFE0001FFC0
7FC3FE0003FF80
7F00FE0007FF00
FF00FF000FFE00
FE007F001FFC00
FE007F003FF800
FE007F007FF000
FE007F00FFE000
FF00FF01FFC000
FF00FE03FF8000
7FC3FE07FF0000
7FFFFE0FFE0000
3FFFFC1FFC0000
1FFFF83FF80000
1FFFF07FF00000
07FFE0FFE00000
03FFC1FFC00000
00FF03FF800000
000007FF000000
00000FFE000000
00001FFC07E000
00003FF83FFC00
00007FF07FFE00
0000FFE0FFFF00
0001FFC1FFFF80
0003FF83FFFFC0
0007FF07FFFFE0
000FFE07FC3FE0
001FFC07F00FF0
003FF80FF00FF0
007FF00FE007F0
00FFE00FE007F0
01FFC00FE007F0
03FF800FE007F0
07FF000FF00FF0
0FFE0007F00FF0
1FFC0007FC3FE0
3FF80007FFFFE0
1FF00003FFFFC0
0FE00001FFFF80
07C00000FFFF80
038000007FFE00
010000003FFC00
000000000FF000
ENDCHAR
STARTCHAR 0026
ENCODING 38
SWIDTH 675 0
DWIDTH 45 0
BBX 41 50 3 -1
BITMAP
0007FC000000
003FFF800000
00FFFFE00000
01FFFFF00000
03FFFFF80000
07FFFFFC0000
07FFFFFE0000
0FFFFFFE0000
0FFC03FF0000
1FF001FF0000
1FF000FC0000
1FE000C00000
1FE000000000
1FE000000000
1FE000000000
1FE000000000
1FF000000000
1FF000000000
0FF800000000
0FFC00000000
07FE00000000
03FF00000000
01FF80000000
07FFC0000000
0FFFE00FE000
1FFFF80FE000
1FFFFC0FE000
3FFFFE0FE000
3FF7FF0FE000
7FE3FF8FE000
7FC1FFCFE000
7F80FFEFE000
7F807FFFE000
FF003FFFE000
FF001FFFE000
FF000FFFE000
FF8003FFE000
FF8001FFE000
7F8000FFE000
7FC0007FF000
7FE0007FF800
3FF801FFFC00
3FFFFFFFFE00
1FFFFFFFFF00
1FFFFFFFFF80
0FFFFFFFFF00
07FFFFFCFE00
01FFFFF07C00
007FFFC03800
0007FE001000
ENDCHAR
STARTCHAR 0027
ENCODING 39
SWIDTH 255 0
DWIDTH 17 0
BBX 8 12 4 36
BITMAP
FF
FF
FF
FF
FF
FF
FF
FF
FF
FF
FF
FF
ENDCHAR
STARTCHAR 0028
ENCODING 40
SWIDTH 450 0
DWIDTH 30 0
BBX 18 69 9 -12
BITMAP
000800
001E00
001F00
003F80
007FC0
00FFC0
00FF80
01FF00
01FE00
03FE00
03FC00
07FC00
07F800
0FF000
0FF000
0FE000
1FE000
1FE000
1FC000
3FC000
3FC000
3F8000
3F8000
7F8000
7F8000
7F0000
7F0000
7F0000
7F0000
FF0000
FF0000
FF0000
FF0000
FF0000
FF0000
FF0000
FF0000
FF0000
FF0000
FF0000
7F0000
7F0000
7F0000
7F0000
7F8000
7F8000
7F8000
3F8000
3F8000
3FC000
3FC000
1FC000
1FE000
1FE000
0FF000
0FF000
07F800
07F800
03FC00
03FC00
01FE00
01FF00
00FF00
00FF80
007FC0
003FC0
003F00
001E00
000C00
ENDCHAR
STARTCHAR 0029
ENCODING 41
SWIDTH 450 0
DWIDTH 30 0
BBX 18 69 3 -12
BITMAP
040000
0E0000
3F0000
7F0000
FF8000
7FC000
7FC000
3FE000
1FE000
1FF000
0FF000
07F800
07F800
03FC00
03FC00
01FE00
01FE00
00FE00
00FF00
00FF00
007F00
007F00
007F80
007F80
003F80
003F80
003F80
003F80
003FC0
003FC0
003FC0
003FC0
001FC0
001FC0
001FC0
001FC0
001FC0
003FC0
003FC0
003FC0
003FC0
003F80
003F80
003F80
003F80
007F80
007F80
007F00
007F00
00FF00
00FF00
00FE00
01FE00
01FE00
03FC00
03FC00
07FC00
07F800
0FF800
0FF000
1FF000
3FE000
3FE000
7FC000
FF8000
FF8000
3F0000
1E0000
0C0000
ENDCHAR
STARTCHAR 002A
ENCODING 42
SWIDTH 465 0
DWIDTH 31 0
BBX 25 24 2 24
BITMAP
007F0000
007F0000
007F0000
007F0000
007F0000
207F0200
3C7F1E00
7F7F7F00
7FFFFF00
7FFFFF00
FFFFFF80
FFFFFF80
3FFFFE00
03FFF000
01FFC000
03FFE000
07FFF000
07FFF000
0FF7F800
1FE3FC00
1FE3FC00
07C1F000
0380E000
0180C000
ENDCHAR
STARTCHAR 002B
ENCODING 43
SWIDTH 570 0
DWIDTH 38 0
BBX 30 30 4 9
BITMAP
000FC000
000FC000
000FC000
000FC000
000FC000
000FC000
000FC000
000FC000
000FC000
000FC000
000FC000
000FC000
FFFFFFFC
FFFFFFFC
FFFFFFFC
FFFFFFFC
FFFFFFFC
FFFFFFFC
000FC000
000FC000
000FC000
000FC000
000FC000
000FC000
000FC000
000FC000
000FC000
000FC000
000FC000
000FC000
ENDCHAR
STARTCHAR 002C
ENCODING 44
SWIDTH 300 0
DWIDTH 20 0
BBX 8 18 4 -9
BITMAP
FF
FF
FF
FF
FF
FF
FF
FF
FF
0F
0F
0F
0F
1F
FE
FE
FC
E0
ENDCHAR
STARTCHAR 002D
ENCODING 45
SWIDTH 420 0
DWIDTH 28 0
BBX 20 6 4 18
BITMAP
FFFFF0
FFFFF0
FFFFF0
FFFFF0
FFFFF0
FFFFF0
ENDCHAR
STARTCHAR 002E
ENCODING 46
SWIDTH 300 0
DWIDTH 20 0
BBX 8 8 6 0
BITMAP
FF
FF
FF
FF
FF
FF
FF
FF
ENDCHAR
STARTCHAR 002F
ENCODING 47
SWIDTH 435 0
DWIDTH 29 0
BBX 21 48 4 0
BITMAP
0007F8
000FF0
000FF0
000FF0
000FF0
001FE0
001FE0
001FE0
001FE0
003FC0
003FC0
003FC0
007FC0
007F80
007F80
007F80
00FF00
00FF00
00FF00
00FF00
01FE00
01FE00
01FE00
01FE00
03FC00
03FC00
03FC00
07FC00
07F800
07F800
07F800
0FF000
0FF000
0FF000
0FF000
1FE000
1FE000
1FE000
1FE000
3FC000
3FC000
3FC000
7FC000
7F8000
7F8000
7F8000
FF0000
FF0000
ENDCHAR
STARTCHAR 0030
ENCODING 48
SWIDTH 660 0
DWIDTH 44 0
BBX 34 50 5 -1
BITMAP
000FF80000
007FFF8000
01FFFFC000
03FFFFF000
07FFFFF800
0FFFFFFC00
1FFFFFFE00
3FFFFFFF00
3FF807FF00
7FE001FF80
7FC000FF80
FF8000FF80
FF80007FC0
FF00007FC0
FF00003FC0
FF00003FC0
FF00003FC0
FF00003FC0
FF00003FC0
FF00003FC0
FF00003FC0
FF00003FC0
FF00003FC0
FF00003FC0
FF00003FC0
FF00003FC0
FF00003FC0
FF00003FC0
FF00003FC0
FF00003FC0
FF00003FC0
FF00003FC0
FF00003FC0
FF00003FC0
FF00003FC0
FF00003FC0
FF00007FC0
FF80007FC0
FF8000FF80
7FC000FF80
7FE003FF80
3FF807FF00
3FFFFFFF00
1FFFFFFE00
0FFFFFFC00
07FFFFF800
03FFFFF000
01FFFFE000
007FFF8000
000FF80000
ENDCHAR
STARTCHAR 0031
ENCODING 49
SWIDTH 435 0
DWIDTH 29 0
BBX 17 48 4 0
BITMAP
00FF80
01FF80
07FF80
1FFF80
7FFF80
FFFF80
FFFF80
FFFF80
FFFF80
FF7F80
FC7F80
F87F80
E07F80
807F80
007F80
007F80
007F80
007F80
007F80
007F80
007F80
007F80
007F80
007F80
007F80
007F80
007F80
007F80
007F80
007F80
007F80
007F80
007F80
007F80
007F80
007F80
007F80
007F80
007F80
007F80
007F80
007F80
007F80
007F80
007F80
007F80
007F80
007F80
ENDCHAR
STARTCHAR 0032
ENCODING 50
SWIDTH 600 0
DWIDTH 40 0
BBX 33 49 3 0
BITMAP
0007F80000
007FFF0000
01FFFFC000
03FFFFF000
07FFFFF800
0FFFFFFC00
1FFFFFFC00
1FFFFFFE00
3FF807FF00
3FF003FF00
7FE001FF00
7FC000FF80
7F8000FF80
7F80007F80
FF80007F80
FF80007F80
0000007F80
0000007F80
0000007F80
000000FF80
000000FF80
000001FF80
000003FF00
000007FF00
00000FFE00
00001FFC00
00003FF800
00007FF000
0001FFE000
0003FFC000
0007FF8000
000FFF0000
001FFE0000
003FFC0000
007FF80000
00FFE00000
03FFC00000
07FF800000
0FFF000000
1FFE000000
3FFC000000
7FFFFFFF80
FFFFFFFF80
FFFFFFFF80
FFFFFFFF80
FFFFFFFF80
FFFFFFFF80
FFFFFFFF80
FFFFFFFF80
ENDCHAR
STARTCHAR 0033
ENCODING 51
SWIDTH 585 0
DWIDTH 39 0
BBX 32 49 3 -1
BITMAP
3FFFFFFE
3FFFFFFE
3FFFFFFE
3FFFFFFE
3FFFFFFE
3FFFFFFE
3FFFFFFE
3FFFFFFE
00000FFC
00001FF8
00003FF0
00007FE0
0000FFC0
0003FF80
0007FF00
000FFE00
001FFC00
003FF800
007FFC00
00FFFF00
00FFFFC0
007FFFE0
007FFFF0
003FFFF8
003FFFF8
00101FFC
000007FE
000003FE
000003FE
000001FE
000001FF
000001FF
000000FF
000000FF
000001FF
000001FF
0F0001FE
FF0003FE
FF8003FE
FFC007FC
7FE01FFC
7FFFFFF8
3FFFFFF8
1FFFFFF0
0FFFFFE0
07FFFFC0
01FFFF00
00FFFE00
001FF000
ENDCHAR
STARTCHAR 0034
ENCODING 52
SWIDTH 615 0
DWIDTH 41 0
BBX 34 48 3 0
BITMAP
0001FF8000
0001FF0000
0001FF0000
0003FE0000
0003FE0000
0007FC0000
0007FC0000
000FF80000
000FF80000
001FF00000
001FF00000
003FE00000
003FE00000
007FC00000
007FC00000
00FFC00000
00FF800000
01FF800000
01FF000000
03FF000000
03FE03FC00
03FE03FC00
07FC03FC00
07FC03FC00
0FF803FC00
0FF803FC00
1FF003FC00
1FF003FC00
3FE003FC00
3FE003FC00
7FC003FC00
7FC003FC00
FFFFFFFFC0
FFFFFFFFC0
FFFFFFFFC0
FFFFFFFFC0
FFFFFFFFC0
FFFFFFFFC0
FFFFFFFFC0
FFFFFFFFC0
000003FC00
000003FC00
000003FC00
000003FC00
000003FC00
000003FC00
000003FC00
000003FC00
ENDCHAR
STARTCHAR 0035
ENCODING 53
SWIDTH 585 0
DWIDTH 39 0
BBX 33 49 3 -1
BITMAP
1FFFFFFC00
1FFFFFFC00
1FFFFFFC00
1FFFFFFC00
1FFFFFFC00
1FFFFFFC00
1FFFFFFC00
1FFFFFFC00
1FE0000000
1FC0000000
1FC0000000
1FC0000000
1FC0000000
1FC0000000
1FC0000000
1FC0000000
3FC0000000
3FC3F80000
3FDFFF0000
3FFFFFC000
3FFFFFE000
3FFFFFF000
3FFFFFF800
3FFFFFFC00
3FFC3FFE00
1FE00FFE00
03C003FF00
000001FF00
000001FF00
000000FF00
000000FF80
0000007F80
0000007F80
0000007F80
000000FF80
030000FF00
3F8000FF00
FF8001FF00
7FC003FF00
7FE007FE00
3FF80FFE00
3FFFFFFC00
1FFFFFF800
0FFFFFF800
07FFFFF000
03FFFFC000
01FFFF8000
007FFE0000
000FF00000
ENDCHAR
STARTCHAR 0036
ENCODING 54
SWIDTH 615 0
DWIDTH 41 0
BBX 33 50 5 -1
BITMAP
0007FC0000
007FFF8000
01FFFFE000
03FFFFF000
07FFFFF800
0FFFFFF800
1FFFFFF000
3FFFFFE000
3FF807C000
7FE0018000
7FC0000000
7F80000000
FF80000000
FF00000000
FF00000000
FF00000000
FF00000000
FF00000000
FF03F80000
FF1FFF0000
FF7FFFC000
FFFFFFE000
FFFFFFF800
FFFFFFF800
FFFFFFFC00
FFFC3FFE00
FFF007FE00
FFE003FF00
FFC001FF00
FF8000FF00
FF8000FF80
FF0000FF80
FF00007F80
FF00007F80
FF00007F80
FF00007F80
FF0000FF80
FF8000FF00
7F8001FF00
7FC001FF00
7FE007FE00
3FF80FFE00
3FFFFFFC00
1FFFFFFC00
0FFFFFF800
07FFFFF000
03FFFFE000
01FFFF8000
007FFE0000
000FF80000
ENDCHAR
STARTCHAR 0037
ENCODING 55
SWIDTH 540 0
DWIDTH 36 0
BBX 29 48 3 0
BITMAP
FFFFFFF8
FFFFFFF8
FFFFFFF8
FFFFFFF8
FFFFFFF8
FFFFFFF8
FFFFFFF8
FFFFFFF8
00000FF8
00000FF0
00001FF0
00001FF0
00001FE0
00003FE0
00003FC0
00007FC0
00007FC0
00007F80
0000FF80
0000FF00
0001FF00
0001FF00
0001FE00
0003FE00
0003FC00
0007FC00
0007FC00
000FF800
000FF800
000FF000
001FF000
001FF000
003FE000
003FE000
003FC000
007FC000
007F8000
00FF8000
00FF8000
00FF0000
01FF0000
01FE0000
03FE0000
03FE0000
03FC0000
07FC0000
07F80000
0FF80000
ENDCHAR
STARTCHAR 0038
ENCODING 56
SWIDTH 615 0
DWIDTH 41 0
BBX 33 50 4 -1
BITMAP
000FF80000
007FFF0000
01FFFFC000
03FFFFE000
07FFFFF000
0FFFFFF800
1FFFFFFC00
1FFFFFFC00
3FF00FFE00
3FE003FE00
3FC003FE00
7FC001FE00
7FC001FE00
7FC001FF00
7FC001FE00
7FC001FE00
3FC003FE00
3FE003FE00
3FF00FFE00
1FFFFFFC00
1FFFFFFC00
0FFFFFF800
07FFFFF000
07FFFFF000
0FFFFFF800
1FFFFFFC00
3FFFFFFC00
3FF80FFE00
7FE003FF00
7FC001FF00
7F8001FF00
FF8000FF80
FF8000FF80
FF8000FF80
FF8000FF80
FF8000FF80
FF8000FF80
FF8000FF80
FF8000FF00
7FC001FF00
7FE003FF00
7FF007FE00
3FFFFFFE00
1FFFFFFC00
1FFFFFF800
0FFFFFF000
07FFFFE000
01FFFFC000
007FFF0000
000FF80000
ENDCHAR
STARTCHAR 0039
ENCODING 57
SWIDTH 615 0
DWIDTH 41 0
BBX 33 50 4 -1
BITMAP
000FF00000
007FFE0000
01FFFF8000
03FFFFC000
07FFFFF000
0FFFFFF800
1FFFFFF800
3FFFFFFC00
7FF80FFE00
7FE007FE00
7FC003FF00
FF8001FF00
FF0000FF00
FF0000FF00
FF0000FF80
FF00007F80
FF00007F80
FF0000FF80
FF0000FF80
FF0000FF80
FF8001FF80
FF8001FF80
7FC003FF80
7FF00FFF80
3FFC3FFF80
3FFFFFFF80
1FFFFFFF80
0FFFFFFF80
07FFFF7F80
03FFFE7F80
00FFF87F80
001FE07F80
0000007F80
0000007F80
000000FF80
000000FF80
000000FF00
000000FF00
000001FF00
008003FF00
01C007FE00
03E01FFE00
07FFFFFC00
0FFFFFF800
1FFFFFF800
1FFFFFF000
0FFFFFC000
03FFFF8000
00FFFE0000
001FF00000
ENDCHAR
STARTCHAR 003A
ENCODING 58
SWIDTH 345 0
DWIDTH 23 0
BBX 9 28 7 4
BITMAP
FF80
FF80
FF80
FF80
FF80
FF80
FF80
FF80
0000
0000
0000
0000
0000
0000
0000
0000
0000
0000
0000
0000
FF80
FF80
FF80
FF80
FF80
FF80
FF80
FF80
ENDCHAR
STARTCHAR 003B
ENCODING 59
SWIDTH 345 0
DWIDTH 23 0
BBX 9 45 7 -9
BITMAP
FF80
FF80
FF80
FF80
FF80
FF80
FF80
FF80
0000
0000
0000
0000
0000
0000
0000
0000
0000
0000
0000
0000
0000
0000
0000
0000
0000
0000
0000
FF80
FF80
FF80
FF80
FF80
FF80
FF80
FF80
FF80
0780
0780
0F00
0F00
1F00
7F00
7E00
FC00
E000
ENDCHAR
STARTCHAR 003C
ENCODING 60
SWIDTH 645 0
DWIDTH 43 0
BBX 20 32 10 5
BITMAP
000100
000380
0007C0
000FE0
001FF0
003FF0
007FE0
00FFC0
01FF80
03FF00
07FE00
0FFC00
1FF800
3FF000
7FE000
FF8000
FF8000
7FC000
3FF000
1FF800
0FFC00
07FE00
03FF00
01FF80
00FFC0
007FE0
003FF0
001FF0
000FE0
0007C0
000380
000100
ENDCHAR
STARTCHAR 003D
ENCODING 61
SWIDTH 750 0
DWIDTH 50 0
BBX 34 18 8 15
BITMAP
FFFFFFFFC0
FFFFFFFFC0
FFFFFFFFC0
FFFFFFFFC0
FFFFFFFFC0
FFFFFFFFC0
0000000000
0000000000
0000000000
0000000000
0000000000
0000000000
FFFFFFFFC0
FFFFFFFFC0
FFFFFFFFC0
FFFFFFFFC0
FFFFFFFFC0
FFFFFFFFC0
ENDCHAR
STARTCHAR 003E
ENCODING 62
SWIDTH 645 0
DWIDTH 43 0
BBX 20 32 13 5
BITMAP
080000
1C0000
3E0000
7F0000
FF8000
FFC000
7FE000
3FF000
1FF800
0FFC00
07FE00
03FF00
01FF80
00FFC0
007FE0
003FF0
003FF0
007FE0
00FFC0
01FF80
03FF00
07FE00
0FFC00
1FF800
3FF000
7FE000
FFC000
FF8000
7F0000
3E0000
1C0000
080000
ENDCHAR
STARTCHAR 003F
ENCODING 63
SWIDTH 555 0
DWIDTH 37 0
BBX 31 49 3 0
BITMAP
001FF000
00FFFE00
03FFFF80
07FFFFC0
0FFFFFE0
1FFFFFF0
1FFFFFF8
3FFFFFF8
3FE01FFC
7FC007FC
7F8007FC
7F8003FC
FF8003FC
FF8003FE
000003FC
000003FC
000003FC
000007FC
000007FC
00000FF8
00001FF8
00003FF0
00007FE0
0000FFE0
0003FFC0
0003FF80
0007FF00
000FFE00
000FFC00
001FF800
001FF000
001FE000
001FE000
003FE000
003FE000
003FE000
00000000
00000000
00000000
00000000
003FE000
003FE000
003FE000
003FE000
003FE000
003FE000
003FE000
003FE000
003FE000
ENDCHAR
STARTCHAR 0040
ENCODING 64
SWIDTH 915 0
DWIDTH 61 0
BBX 51 50 5 -7
BITMAP
00000FFE000000
0000FFFFE00000
0007FFFFF80000
000FFFFFFE0000
003FFFFFFF8000
007FFFFFFFC000
00FFFF0FFFE000
01FFC0007FF000
03FF00001FF800
07FC000007FC00
0FF8000003FE00
0FF0000001FE00
1FE0000000FF00
1FC007F0007F00
3FC01FFEF83F80
3F807FFFF83F80
3F80FFFFF81FC0
7F01FFFFF81FC0
7F03FFFFF81FC0
7F03FF3FF81FC0
7E07F807F80FC0
7E07F003F80FC0
FE07F003F80FE0
FE07F003F80FE0
FE07E003F80FE0
FE07E001F80FE0
FE07F003F80FC0
FE07F003F80FC0
FE07F003F81FC0
7F07F807F81FC0
7F03FC0FFC3FC0
7F03FFFFFFFF80
7F01FFFFFFFF80
7F80FFFFFFFF00
3F807FFFFFFF00
3FC03FFE3FFE00
1FC00FF81FF800
1FE00000018000
0FF00000000000
0FF80000000000
07FC0000000000
03FF0000000000
01FFC000400000
00FFFE0FC00000
007FFFFFC00000
003FFFFFE00000
000FFFFFE00000
0007FFFFE00000
0000FFFFE00000
00000FFE000000
ENDCHAR
STARTCHAR 0041
ENCODING 65
SWIDTH 675 0
DWIDTH 45 0
BBX 42 48 1 0
BITMAP
0001FFE00000
0001FFF00000
0001FFF00000
0003FFF00000
0003FFF80000
0003FFF80000
0007FFF80000
0007FFFC0000
0007FFFC0000
000FFBFC0000
000FF3FE0000
000FF3FE0000
000FF1FE0000
001FE1FF0000
001FE1FF0000
001FE0FF0000
003FE0FF0000
003FC0FF8000
003FC07F8000
007FC07F8000
007F807FC000
007F803FC000
00FF803FC000
00FF003FE000
00FF001FE000
01FF001FE000
01FE001FF000
01FE000FF000
03FE000FF000
03FC000FF800
03FFFFFFF800
03FFFFFFF800
07FFFFFFFC00
07FFFFFFFC00
07FFFFFFFC00
0FFFFFFFFC00
0FFFFFFFFE00
0FFFFFFFFE00
1FF00001FE00
1FE00001FF00
1FE00000FF00
3FE00000FF00
3FC00000FF80
3FC000007F80
7FC000007F80
7F8000007FC0
7F8000003FC0
FF8000003FC0
ENDCHAR
STARTCHAR 0042
ENCODING 66
SWIDTH 630 0
DWIDTH 42 0
BBX 35 48 5 0
BITMAP
FFFFFE0000
FFFFFFC000
FFFFFFE000
FFFFFFF800
FFFFFFFC00
FFFFFFFC00
FFFFFFFE00
FFFFFFFF00
FF0003FF00
FF0001FF00
FF0000FF80
FF0000FF80
FF00007F80
FF00007F80
FF00007F80
FF0000FF80
FF0000FF00
FF0001FF00
FF0007FF00
FFFFFFFE00
FFFFFFFC00
FFFFFFF800
FFFFFFF000
FFFFFFFC00
FFFFFFFE00
FFFFFFFF00
FFFFFFFF80
FF0000FFC0
FF00007FC0
FF00003FC0
FF00003FE0
FF00001FE0
FF00001FE0
FF00001FE0
FF00001FE0
FF00001FE0
FF00003FE0
FF00003FE0
FF00007FC0
FF0001FFC0
FFFFFFFFC0
FFFFFFFF80
FFFFFFFF80
FFFFFFFF00
FFFFFFFE00
FFFFFFFC00
FFFFFFF000
FFFFFF8000
ENDCHAR
STARTCHAR 0043
ENCODING 67
SWIDTH 735 0
DWIDTH 49 0
BBX 44 50 2 -1
BITMAP
00003FF00000
0003FFFF0000
000FFFFFC000
003FFFFFF000
007FFFFFF800
01FFFFFFFC00
03FFFFFFFE00
03FFFFFFFF00
07FF8007FF80
0FFE0001FFC0
1FFC0000FFC0
1FF800007FE0
3FF000003FE0
3FE000001FF0
3FE000001FF0
7FC000000FF0
7FC000000F00
7F8000000800
7F8000000000
FF8000000000
FF8000000000
FF8000000000
FF8000000000
FF0000000000
FF0000000000
FF0000000000
FF0000000000
FF8000000000
FF8000000000
FF8000000000
FF8000000000
7F8000000000
7F8000000800
7FC000000F00
7FC000000FF0
3FE000001FF0
3FE000001FF0
3FF000003FE0
1FF800007FE0
1FFC0000FFC0
0FFE0001FFC0
07FF800FFF80
03FFFFFFFF00
03FFFFFFFE00
01FFFFFFFC00
007FFFFFF800
003FFFFFF000
000FFFFFC000
0003FFFF0000
00003FF00000
ENDCHAR
STARTCHAR 0044
ENCODING 68
SWIDTH 705 0
DWIDTH 47 0
BBX 38 48 5 0
BITMAP
FFFFFC0000
FFFFFFC000
FFFFFFF000
FFFFFFF800
FFFFFFFE00
FFFFFFFF00
FFFFFFFF80
FFFFFFFF80
FF0003FFC0
FF0000FFE0
FF00007FE0
FF00003FF0
FF00001FF0
FF00000FF8
FF00000FF8
FF00000FF8
FF000007FC
FF000007FC
FF000007FC
FF000003FC
FF000003FC
FF000003FC
FF000003FC
FF000003FC
FF000003FC
FF000003FC
FF000003FC
FF000003FC
FF000003FC
FF000007FC
FF000007FC
FF000007FC
FF00000FF8
FF00000FF8
FF00000FF8
FF00001FF0
FF00003FF0
FF00007FE0
FF0000FFE0
FF0003FFC0
FFFFFFFFC0
FFFFFFFF80
FFFFFFFF00
FFFFFFFE00
FFFFFFF800
FFFFFFF000
FFFFFFC000
FFFFFC0000
ENDCHAR
STARTCHAR 0045
ENCODING 69
SWIDTH 585 0
DWIDTH 39 0
BBX 31 48 5 0
BITMAP
FFFFFFFE
FFFFFFFE
FFFFFFFE
FFFFFFFE
FFFFFFFE
FFFFFFFE
FFFFFFFE
FFFFFFFE
FF000000
FF000000
FF000000
FF000000
FF000000
FF000000
FF000000
FF000000
FF000000
FF000000
FF000000
FFFFFFE0
FFFFFFE0
FFFFFFE0
FFFFFFE0
FFFFFFE0
FFFFFFE0
FFFFFFE0
FFFFFFE0
FF000000
FF000000
FF000000
FF000000
FF000000
FF000000
FF000000
FF000000
FF000000
FF000000
FF000000
FF000000
FF000000
FFFFFFFE
FFFFFFFE
FFFFFFFE
FFFFFFFE
FFFFFFFE
FFFFFFFE
FFFFFFFE
FFFFFFFE
ENDCHAR
STARTCHAR 0046
ENCODING 70
SWIDTH 525 0
DWIDTH 35 0
BBX 29 48 5 0
BITMAP
FFFFFFF8
FFFFFFF8
FFFFFFF8
FFFFFFF8
FFFFFFF8
FFFFFFF8
FFFFFFF8
FFFFFFF8
FF000000
FF000000
FF000000
FF000000
FF000000
FF000000
FF000000
FF000000
FF000000
FF000000
FF000000
FF000000
FFFFFF80
FFFFFF80
FFFFFF80
FFFFFF80
FFFFFF80
FFFFFF80
FFFFFF80
FFFFFF80
FF000000
FF000000
FF000000
FF000000
FF000000
FF000000
FF000000
FF000000
FF000000
FF000000
FF000000
FF000000
FF000000
FF000000
FF000000
FF000000
FF000000
FF000000
FF000000
FF000000
ENDCHAR
STARTCHAR 0047
ENCODING 71
SWIDTH 735 0
DWIDTH 49 0
BBX 45 50 2 -1
BITMAP
00007FF00000
0003FFFF0000
000FFFFFC000
003FFFFFF000
007FFFFFF800
01FFFFFFFC00
03FFFFFFFE00
03FFFFFFFF00
07FF800FFF80
0FFE0003FF80
1FFC0001FFC0
1FF80000FFC0
3FF000007FE0
3FE000003FE0
3FE000003FE0
7FC000001FF0
7FC000001C00
7F8000000000
7F8000000000
FF8000000000
FF8000000000
FF8000000000
FF8000000000
FF8000000000
FF80000FFFF8
FF00000FFFF8
FF80000FFFF8
FF80000FFFF8
FF80000FFFF8
FF80000FFFF8
FF8000000FF8
7F8000000FF0
7F8000000FF0
7FC000001FF0
7FC000001FF0
3FE000001FE0
3FE000003FE0
1FF000007FE0
1FF800007FC0
0FFC0000FFC0
0FFE0003FF80
07FF800FFF00
03FFFFFFFF00
01FFFFFFFE00
00FFFFFFFC00
007FFFFFF800
003FFFFFE000
000FFFFFC000
0003FFFE0000
00003FF00000
ENDCHAR
STARTCHAR 0048
ENCODING 72
SWIDTH 720 0
DWIDTH 48 0
BBX 38 48 5 0
BITMAP
FF000003FC
FF000003FC
FF000003FC
FF000003FC
FF000003FC
FF000003FC
FF000003FC
FF000003FC
FF000003FC
FF000003FC
FF000003FC
FF000003FC
FF000003FC
FF000003FC
FF000003FC
FF000003FC
FF000003FC
FF000003FC
FF000003FC
FF000003FC
FFFFFFFFFC
FFFFFFFFFC
FFFFFFFFFC
FFFFFFFFFC
FFFFFFFFFC
FFFFFFFFFC
FFFFFFFFFC
FFFFFFFFFC
FF000003FC
FF000003FC
FF000003FC
FF000003FC
FF000003FC
FF000003FC
FF000003FC
FF000003FC
FF000003FC
FF000003FC
FF000003FC
FF000003FC
FF000003FC
FF000003FC
FF000003FC
FF000003FC
FF000003FC
FF000003FC
FF000003FC
FF000003FC
ENDCHAR
STARTCHAR 0049
ENCODING 73
SWIDTH 285 0
DWIDTH 19 0
BBX 8 48 5 0
BITMAP
FF
FF
FF
FF
FF
FF
FF
FF
FF
FF
FF
FF
FF
FF
FF
FF
FF
FF
FF
FF
FF
FF
FF
FF
FF
FF
FF
FF
FF
FF
FF
FF
FF
FF
FF
FF
FF
FF
FF
FF
FF
FF
FF
FF
FF
FF
FF
FF
ENDCHAR
STARTCHAR 004A
ENCODING 74
SWIDTH 495 0
DWIDTH 33 0
BBX 28 49 0 -1
BITMAP
00000FF0
00000FF0
00000FF0
00000FF0
00000FF0
00000FF0
00000FF0
00000FF0
00000FF0
00000FF0
00000FF0
00000FF0
00000FF0
00000FF0
00000FF0
00000FF0
00000FF0
00000FF0
00000FF0
00000FF0
00000FF0
00000FF0
00000FF0
00000FF0
00000FF0
00000FF0
00000FF0
00000FF0
00000FF0
00000FF0
00000FF0
00000FF0
00000FF0
00000FF0
00000FF0
00000FF0
00000FF0
0F000FF0
FF801FF0
FFC03FF0
7FE07FE0
7FFFFFE0
3FFFFFC0
3FFFFFC0
1FFFFF80
0FFFFF00
03FFFE00
01FFF800
003FE000
ENDCHAR
STARTCHAR 004B
ENCODING 75
SWIDTH 645 0
DWIDTH 43 0
BBX 38 48 5 0
BITMAP
FF00003FF0
FF00003FE0
FF00007FE0
FF0000FFC0
FF0001FF80
FF0003FF00
FF0007FE00
FF000FFC00
FF000FF800
FF001FF000
FF003FF000
FF007FE000
FF00FFC000
FF01FF8000
FF03FF0000
FF03FE0000
FF07FC0000
FF0FF80000
FF1FF80000
FF3FF00000
FF7FE00000
FFFFC00000
FFFF800000
FFFF000000
FFFF800000
FFFFC00000
FFFFE00000
FF7FF00000
FF3FF80000
FF1FF80000
FF0FFC0000
FF07FE0000
FF03FF0000
FF01FF8000
FF00FFC000
FF007FE000
FF003FF000
FF003FF800
FF001FFC00
FF000FFC00
FF0007FE00
FF0003FF00
FF0001FF80
FF0000FFC0
FF00007FE0
FF00003FF0
FF00001FF8
FF00001FFC
ENDCHAR
STARTCHAR 004C
ENCODING 76
SWIDTH 540 0
DWIDTH 36 0
BBX 30 48 5 0
BITMAP
FF000000
FF000000
FF000000
FF000000
FF000000
FF000000
FF000000
FF000000
FF000000
FF000000
FF000000
FF000000
FF000000
FF000000
FF000000
FF000000
FF000000
FF000000
FF000000
FF000000
FF000000
FF000000
FF000000
FF000000
FF000000
FF000000
FF000000
FF000000
FF000000
FF000000
FF000000
FF000000
FF000000
FF000000
FF000000
FF000000
FF000000
FF000000
FF000000
FF000000
FFFFFFFC
FFFFFFFC
FFFFFFFC
FFFFFFFC
FFFFFFFC
FFFFFFFC
FFFFFFFC
FFFFFFFC
ENDCHAR
STARTCHAR 004D
ENCODING 77
SWIDTH 855 0
DWIDTH 57 0
BBX 47 48 5 0
BITMAP
FE00000000FE
FF00000001FE
FF00000001FE
FF80000003FE
FF80000003FE
FFC0000007FE
FFC0000007FE
FFE000000FFE
FFE000000FFE
FFF000001FFE
FFF000001FFE
FFF800003FFE
FFF800003FFE
FFF800003FFE
FFFC00007FFE
FFFC00007FFE
FFFE0000FFFE
FFFE0000FFFE
FEFF0001FEFE
FEFF0001FEFE
FE7F8003FCFE
FE7F8003FCFE
FE3FC007F8FE
FE3FC007F8FE
FE1FE00FF0FE
FE1FE00FF0FE
FE0FF01FE0FE
FE0FF01FE0FE
FE07F83FC0FE
FE07F83FC0FE
FE03FC7F80FE
FE03FC7F80FE
FE03FEFF80FE
FE01FEFF00FE
FE01FFFF00FE
FE00FFFE00FE
FE00FFFE00FE
FE007FFC00FE
FE007FFC00FE
FE003FF800FE
FE003FF800FE
FE001FF000FE
FE001FF000FE
FE000FE000FE
FE000FE000FE
FE0007C000FE
FE0007C000FE
FE00038000FE
ENDCHAR
STARTCHAR 004E
ENCODING 78
SWIDTH 720 0
DWIDTH 48 0
BBX 38 48 5 0
BITMAP
FF000003FC
FF800003FC
FF800003FC
FFC00003FC
FFE00003FC
FFE00003FC
FFF00003FC
FFF80003FC
FFF80003FC
FFFC0003FC
FFFE0003FC
FFFE0003FC
FFFF0003FC
FFFF8003FC
FFFF8003FC
FF7FC003FC
FF7FE003FC
FF3FE003FC
FF1FF003FC
FF1FF803FC
FF0FF803FC
FF07FC03FC
FF07FE03FC
FF03FE03FC
FF01FF03FC
FF01FF83FC
FF00FF83FC
FF007FC3FC
FF007FE3FC
FF003FE3FC
FF001FF3FC
FF001FFBFC
FF000FFBFC
FF0007FFFC
FF0007FFFC
FF0003FFFC
FF0003FFFC
FF0001FFFC
FF0000FFFC
FF0000FFFC
FF00007FFC
FF00003FFC
FF00003FFC
FF00001FFC
FF00000FFC
FF00000FFC
FF000007FC
FF000003FC
ENDCHAR
STARTCHAR 004F
ENCODING 79
SWIDTH 750 0
DWIDTH 50 0
BBX 46 50 2 -1
BITMAP
00003FF00000
0003FFFF0000
000FFFFFC000
003FFFFFF000
007FFFFFF800
01FFFFFFFC00
03FFFFFFFE00
03FFFFFFFF00
07FF800FFF80
0FFE0003FFC0
1FFC0000FFC0
1FF800007FE0
3FF000003FE0
3FE000001FF0
3FE000001FF0
7FC000000FF8
7FC000000FF8
7F8000000FF8
7F80000007F8
FF80000007FC
FF80000007FC
FF80000007FC
FF80000007FC
FF80000007FC
FF80000007FC
FF00000007FC
FF80000007FC
FF80000007FC
FF80000007FC
FF80000007FC
FF80000007FC
7F80000007F8
7F8000000FF8
7FC000000FF8
7FC000000FF8
3FE000001FF0
3FE000001FF0
3FF000003FE0
1FF800007FE0
1FFC0000FFC0
0FFE0001FFC0
07FF8007FF80
03FFFFFFFF00
03FFFFFFFE00
01FFFFFFFC00
007FFFFFF800
003FFFFFF000
000FFFFFC000
0003FFFF0000
00003FF00000
ENDCHAR
STARTCHAR 0050
ENCODING 80
SWIDTH 645 0
DWIDTH 43 0
BBX 36 48 5 0
BITMAP
FFFFFF0000
FFFFFFF000
FFFFFFF800
FFFFFFFE00
FFFFFFFF00
FFFFFFFF80
FFFFFFFF80
FFFFFFFFC0
FF0000FFC0
FF00007FE0
FF00003FE0
FF00001FE0
FF00001FE0
FF00001FE0
FF00001FF0
FF00001FF0
FF00001FF0
FF00001FE0
FF00001FE0
FF00001FE0
FF00003FE0
FF00007FE0
FF0000FFC0
FFFFFFFFC0
FFFFFFFF80
FFFFFFFF80
FFFFFFFF00
FFFFFFFE00
FFFFFFF800
FFFFFFF000
FFFFFF8000
FF00000000
FF00000000
FF00000000
FF00000000
FF00000000
FF00000000
FF00000000
FF00000000
FF00000000
FF00000000
FF00000000
FF00000000
FF00000000
FF00000000
FF00000000
FF00000000
FF00000000
ENDCHAR
STARTCHAR 0051
ENCODING 81
SWIDTH 750 0
DWIDTH 50 0
BBX 46 50 2 -1
BITMAP
00003FF00000
0003FFFF0000
000FFFFFC000
003FFFFFF000
007FFFFFF800
01FFFFFFFC00
03FFFFFFFE00
03FFFFFFFF00
07FF800FFF80
0FFE0003FFC0
1FFC0000FFC0
1FF800007FE0
3FF000003FE0
3FE000001FF0
3FE000001FF0
7FC000000FF8
7FC000000FF8
7F8000000FF8
7F80000007F8
FF80000007FC
FF80000007FC
FF80000007FC
FF80000007FC
FF80000007FC
FF80000007FC
FF00000007FC
FF80000007FC
FF80000007FC
FF80000007FC
FF80000007FC
FF80000007FC
7F80000107F8
7F8000038FF8
7FC00007CFF8
7FC0000FEFF8
3FE0001FFFF0
3FE0001FFFF0
3FF0000FFFE0
1FF80007FFE0
1FFC0003FFC0
0FFE0001FFC0
07FF8007FFC0
03FFFFFFFFE0
03FFFFFFFFF0
01FFFFFFFFF8
007FFFFFFFF8
003FFFFFF7F0
000FFFFFC3E0
0003FFFF01C0
00003FF00080
ENDCHAR
STARTCHAR 0052
ENCODING 82
SWIDTH 660 0
DWIDTH 44 0
BBX 36 48 5 0
BITMAP
FFFFFF0000
FFFFFFF000
FFFFFFF800
FFFFFFFE00
FFFFFFFF00
FFFFFFFF80
FFFFFFFF80
FFFFFFFFC0
FF0000FFC0
FF00007FE0
FF00003FE0
FF00001FE0
FF00001FE0
FF00001FE0
FF00001FF0
FF00001FF0
FF00001FF0
FF00001FE0
FF00001FE0
FF00001FE0
FF00003FE0
FF00007FE0
FF0000FFC0
FFFFFFFFC0
FFFFFFFF80
FFFFFFFF80
FFFFFFFF00
FFFFFFFE00
FFFFFFF800
FFFFFFF000
FFFFFFF000
FF001FF000
FF000FF800
FF000FF800
FF0007FC00
FF0007FC00
FF0003FE00
FF0003FE00
FF0001FF00
FF0001FF00
FF0000FF80
FF0000FF80
FF00007FC0
FF00007FC0
FF00003FE0
FF00003FE0
FF00003FF0
FF00001FF0
ENDCHAR
STARTCHAR 0053
ENCODING 83
SWIDTH 660 0
DWIDTH 44 0
BBX 38 50 3 -1
BITMAP
0003FF0000
003FFFE000
00FFFFF800
01FFFFFE00
07FFFFFF00
0FFFFFFF80
0FFFFFFFC0
1FFFFFFFE0
3FFC01FFF0
3FF0007FF0
3FE0003FF8
3FC0001FF8
7FC0000FF8
7FC00007FC
7FC00007E0
7FC0000400
3FE0000000
3FF0000000
3FFC000000
1FFF800000
1FFFF80000
0FFFFF0000
07FFFFF000
03FFFFFC00
01FFFFFF00
003FFFFFC0
0007FFFFE0
0000FFFFF0
00001FFFF8
000001FFF8
0000003FFC
0000000FFC
00000007FC
00000007FC
7F000003FC
FF800003FC
FF800003FC
FFC00007FC
7FC00007FC
7FE0000FFC
7FF8001FF8
3FFE007FF8
1FFFFFFFF0
1FFFFFFFE0
0FFFFFFFE0
03FFFFFFC0
01FFFFFF00
007FFFFE00
001FFFF000
0003FF8000
ENDCHAR
STARTCHAR 0054
ENCODING 84
SWIDTH 600 0
DWIDTH 40 0
BBX 39 48 1 0
BITMAP
FFFFFFFFFE
FFFFFFFFFE
FFFFFFFFFE
FFFFFFFFFE
FFFFFFFFFE
FFFFFFFFFE
FFFFFFFFFE
FFFFFFFFFE
0001FE0000
0001FE0000
0001FE0000
0001FE0000
0001FE0000
0001FE0000
0001FE0000
0001FE0000
0001FE0000
0001FE0000
0001FE0000
0001FE0000
0001FE0000
0001FE0000
0001FE0000
0001FE0000
0001FE0000
0001FE0000
0001FE0000
0001FE0000
0001FE0000
0001FE0000
0001FE0000
0001FE0000
0001FE0000
0001FE0000
0001FE0000
0001FE0000
0001FE0000
0001FE0000
0001FE0000
0001FE0000
0001FE0000
0001FE0000
0001FE0000
0001FE0000
0001FE0000
0001FE0000
0001FE0000
0001FE0000
ENDCHAR
STARTCHAR 0055
ENCODING 85
SWIDTH 720 0
DWIDTH 48 0
BBX 38 49 5 -1
BITMAP
FF000003FC
FF000003FC
FF000003FC
FF000003FC
FF000003FC
FF000003FC
FF000003FC
FF000003FC
FF000003FC
FF000003FC
FF000003FC
FF000003FC
FF000003FC
FF000003FC
FF000003FC
FF000003FC
FF000003FC
FF000003FC
FF000003FC
FF000003FC
FF000003FC
FF000003FC
FF000003FC
FF000003FC
FF000003FC
FF000003FC
FF000003FC
FF000003FC
FF000003FC
FF000003FC
FF000003FC
FF000003FC
FF000003FC
FF000003FC
FF800007FC
FF800007FC
7FC0000FF8
7FC0000FF8
7FE0001FF8
3FF8007FF0
3FFC00FFF0
1FFFFFFFE0
0FFFFFFFC0
07FFFFFF80
03FFFFFF00
01FFFFFE00
007FFFF800
001FFFE000
0003FF0000
ENDCHAR
STARTCHAR 0056
ENCODING 86
SWIDTH 645 0
DWIDTH 43 0
BBX 42 48 0 0
BITMAP
FF8000003FC0
7F8000003FC0
7F8000007FC0
7FC000007F80
3FC000007F80
3FC00000FF80
3FE00000FF00
1FE00000FF00
1FE00001FF00
1FF00001FE00
0FF00001FE00
0FF00003FE00
0FF80003FC00
07F80003FC00
07F80007FC00
07F80007F800
03FC0007F800
03FC0007F800
03FC000FF800
03FE000FF000
01FE000FF000
01FE001FF000
01FF001FE000
00FF001FE000
00FF003FE000
00FF803FC000
007F803FC000
007F807FC000
007FC07F8000
003FC07F8000
003FC0FF8000
003FE0FF0000
001FE0FF0000
001FE1FF0000
001FE1FE0000
000FF1FE0000
000FF3FE0000
000FF3FE0000
000FFBFC0000
0007FFFC0000
0007FFFC0000
0007FFF80000
0003FFF80000
0003FFF80000
0003FFF00000
0001FFF00000
0001FFF00000
0001FFE00000
ENDCHAR
STARTCHAR 0057
ENCODING 87
SWIDTH 975 0
DWIDTH 65 0
BBX 63 48 1 0
BITMAP
FF00001FF00001FE
FF80001FF00003FE
FF80001FF00003FE
7F80003FF80003FC
7F80003FF80003FC
7FC0003FF80007FC
3FC0003FFC0007F8
3FC0007FFC0007F8
3FE0007FFC000FF8
1FE0007FFC000FF8
1FE000FFFE000FF0
1FE000FFFE000FF0
1FF000FFFE001FF0
0FF000FFFE001FE0
0FF001FEFF001FE0
0FF001FEFF001FE0
07F801FEFF003FC0
07F803FC7F803FC0
07F803FC7F803FC0
07FC03FC7F807FC0
03FC03FC7F807F80
03FC07F83FC07F80
03FC07F83FC07F80
01FE07F83FC0FF00
01FE07F01FE0FF00
01FE0FF01FE0FF00
01FF0FF01FE0FF00
00FF0FF01FE1FE00
00FF1FE00FF1FE00
00FF1FE00FF1FE00
007F9FE00FF3FC00
007F9FC007F3FC00
007FBFC007FBFC00
003FBFC007FBFC00
003FFFC007FFF800
003FFF8003FFF800
003FFF8003FFF800
001FFF8003FFF000
001FFF0001FFF000
001FFF0001FFF000
000FFF0001FFE000
000FFF0001FFE000
000FFE0000FFE000
000FFE0000FFE000
0007FE0000FFC000
0007FC00007FC000
0007FC00007FC000
0003FC00007F8000
ENDCHAR
STARTCHAR 0058
ENCODING 88
SWIDTH 660 0
DWIDTH 44 0
BBX 42 48 1 0
BITMAP
FFC00001FF80
7FE00001FF80
3FF00003FF00
3FF00007FE00
1FF80007FE00
0FFC000FFC00
0FFC000FF800
07FE001FF800
03FE003FF000
03FF003FE000
01FF807FE000
00FF80FFC000
00FFC0FF8000
007FE1FF8000
003FE3FF0000
003FF3FE0000
001FFFFE0000
000FFFFC0000
000FFFF80000
0007FFF80000
0003FFF00000
0003FFE00000
0001FFE00000
0000FFC00000
0001FFC00000
0001FFE00000
0003FFF00000
0007FFF00000
0007FFF80000
000FFFFC0000
001FFFFC0000
001FF7FE0000
003FF3FF0000
007FE1FF0000
007FC1FF8000
00FFC0FFC000
01FF807FC000
01FF007FE000
03FF003FF000
07FE001FF000
07FC001FF800
0FFC000FFC00
1FF80007FC00
1FF80007FE00
3FF00003FF00
7FE00001FF00
7FE00001FF80
FFC00000FFC0
ENDCHAR
STARTCHAR 0059
ENCODING 89
SWIDTH 615 0
DWIDTH 41 0
BBX 40 48 0 0
BITMAP
FFC00001FF
7FC00001FF
7FE00003FE
3FE00007FE
1FF00007FC
1FF8000FFC
0FF8000FF8
0FFC001FF0
07FC001FF0
07FE003FE0
03FE007FE0
01FF007FC0
01FF80FFC0
00FF80FF80
00FFC1FF00
007FC3FF00
007FE3FE00
003FE7FE00
001FF7FC00
001FFFFC00
000FFFF800
000FFFF000
0007FFF000
0003FFE000
0003FFE000
0001FFC000
0001FFC000
0000FF8000
0000FF0000
0000FF0000
0000FF0000
0000FF0000
0000FF0000
0000FF0000
0000FF0000
0000FF0000
0000FF0000
0000FF0000
0000FF0000
0000FF0000
0000FF0000
0000FF0000
0000FF0000
0000FF0000
0000FF0000
0000FF0000
0000FF0000
0000FF0000
ENDCHAR
STARTCHAR 005A
ENCODING 90
SWIDTH 660 0
DWIDTH 44 0
BBX 38 48 3 0
BITMAP
3FFFFFFFFC
3FFFFFFFFC
3FFFFFFFF8
3FFFFFFFF8
3FFFFFFFF0
3FFFFFFFE0
3FFFFFFFE0
3FFFFFFFC0
000001FFC0
000001FF80
000003FF00
000003FF00
000007FE00
00000FFE00
00000FFC00
00001FF800
00001FF800
00003FF000
00007FF000
00007FE000
0000FFC000
0000FFC000
0001FF8000
0003FF8000
0003FF0000
0007FE0000
0007FE0000
000FFC0000
001FFC0000
001FF80000
003FF00000
003FF00000
007FE00000
00FFE00000
00FFC00000
01FF800000
01FF800000
03FF000000
07FF000000
07FE000000
0FFFFFFFF8
0FFFFFFFF8
1FFFFFFFF8
3FFFFFFFF8
3FFFFFFFF8
7FFFFFFFF8
7FFFFFFFF8
FFFFFFFFF8
ENDCHAR
STARTCHAR 005B
ENCODING 91
SWIDTH 420 0
DWIDTH 28 0
BBX 15 74 9 -14
BITMAP
FFFE
FFFE
FFFE
FFFE
FFFE
FFFE
FFFE
FE00
FE00
FE00
FE00
FE00
FE00
FE00
FE00
FE00
FE00
FE00
FE00
FE00
FE00
FE00
FE00
FE00
FE00
FE00
FE00
FE00
FE00
FE00
FE00
FE00
FE00
FE00
FE00
FE00
FE00
FE00
FE00
FE00
FE00
FE00
FE00
FE00
FE00
FE00
FE00
FE00
FE00
FE00
FE00
FE00
FE00
FE00
FE00
FE00
FE00
FE00
FE00
FE00
FE00
FE00
FE00
FE00
FE00
FE00
FE00
FFFE
FFFE
FFFE
FFFE
FFFE
FFFE
FFFE
ENDCHAR
STARTCHAR 005C
ENCODING 92
SWIDTH 435 0
DWIDTH 29 0
BBX 21 48 4 0
BITMAP
FF0000
FF0000
7F8000
7F8000
7F8000
7FC000
3FC000
3FC000
3FC000
1FE000
1FE000
1FE000
1FE000
0FF000
0FF000
0FF000
0FF000
07F800
07F800
07F800
07FC00
03FC00
03FC00
03FC00
01FE00
01FE00
01FE00
01FE00
00FF00
00FF00
00FF00
00FF00
007F80
007F80
007F80
007FC0
003FC0
003FC0
003FC0
001FE0
001FE0
001FE0
001FE0
000FF0
000FF0
000FF0
000FF0
0007F8
ENDCHAR
STARTCHAR 005D
ENCODING 93
SWIDTH 420 0
DWIDTH 28 0
BBX 15 74 4 -14
BITMAP
FFFE
FFFE
FFFE
FFFE
FFFE
FFFE
FFFE
00FE
00FE
00FE
00FE
00FE
00FE
00FE
00FE
00FE
00FE
00FE
00FE
00FE
00FE
00FE
00FE
00FE
00FE
00FE
00FE
00FE
00FE
00FE
00FE
00FE
00FE
00FE
00FE
00FE
00FE
00FE
00FE
00FE
00FE
00FE
00FE
00FE
00FE
00FE
00FE
00FE
00FE
00FE
00FE
00FE
00FE
00FE
00FE
00FE
00FE
00FE
00FE
00FE
00FE
00FE
00FE
00FE
00FE
00FE
00FE
FFFE
FFFE
FFFE
FFFE
FFFE
FFFE
FFFE
ENDCHAR
STARTCHAR 005E
ENCODING 94
SWIDTH 675 0
DWIDTH 45 0
BBX 32 21 7 28
BITMAP
00008000
0001C000
0003E000
0007F000
000FF800
001FFC00
003FFE00
007FFF00
00FFFF80
01FFFFC0
03FE7FE0
07FC3FF0
0FF81FF8
1FF00FFC
3FE007FE
7FC003FF
FF8001FF
7F0000FE
3E00007C
1C000038
0C000010
ENDCHAR
STARTCHAR 005F
ENCODING 95
SWIDTH 660 0
DWIDTH 44 0
BBX 44 6 0 -8
BITMAP
FFFFFFFFFFF0
FFFFFFFFFFF0
FFFFFFFFFFF0
FFFFFFFFFFF0
FFFFFFFFFFF0
FFFFFFFFFFF0
ENDCHAR
STARTCHAR 0060
ENCODING 96
SWIDTH 540 0
DWIDTH 36 0
BBX 11 12 11 53
BITMAP
FC00
7E00
7E00
7F00
3F00
3F00
1F80
1F80
0FC0
0FC0
0FC0
07E0
ENDCHAR
STARTCHAR 0061
ENCODING 97
SWIDTH 570 0
DWIDTH 38 0
BBX 31 38 3 -1
BITMAP
001FF800
00FFFF00
03FFFFC0
07FFFFF0
0FFFFFF8
1FFFFFF8
3FFFFFFC
3FFE7FFC
7FF007FE
7FC003FE
3F8001FE
038001FE
000001FE
000001FE
0000FFFE
001FFFFE
01FFFFFE
07FFFFFE
0FFFFFFE
3FFFFFFE
3FFFF1FE
7FFE01FE
FFE001FE
FF8001FE
FF0001FE
FF0001FE
FF0003FE
FF0003FE
FF0007FE
FF000FFE
FF803FFE
FFF9FFFE
7FFFFFFE
3FFFFEFE
3FFFFCFE
0FFFF8FE
07FFE0FE
00FF0000
ENDCHAR
STARTCHAR 0062
ENCODING 98
SWIDTH 615 0
DWIDTH 41 0
BBX 33 49 5 -1
BITMAP
FF00000000
FF00000000
FF00000000
FF00000000
FF00000000
FF00000000
FF00000000
FF00000000
FF00000000
FF00000000
FF00000000
FF0FF80000
FF3FFF0000
FFFFFF8000
FFFFFFE000
FFFFFFF000
FFFFFFF800
FFFFFFFC00
FFF83FFC00
FFE00FFE00
FFC003FE00
FF8003FF00
FF0001FF00
FF0000FF80
FE0000FF80
FE0000FF80
FE00007F80
FE00007F80
FE00007F80
FE00007F80
FE00007F80
FE00007F80
FE00007F80
FE00007F80
FE0000FF80
FE0000FF80
FF0000FF80
FF0001FF00
FF8001FF00
FFC003FE00
FFE00FFE00
FFF83FFC00
FFFFFFFC00
FFFFFFF800
FFFFFFF000
FFFFFFE000
FEFFFFC000
FE3FFF0000
0007F80000
ENDCHAR
STARTCHAR 0063
ENCODING 99
SWIDTH 570 0
DWIDTH 38 0
BBX 33 38 3 -1
BITMAP
0007FC0000
003FFF8000
00FFFFE000
03FFFFF000
07FFFFF800
0FFFFFFC00
1FFFFFFE00
1FFFFFFF00
3FF807FF00
3FF001FF80
7FE000FF80
7FC000FF80
7F80007C00
FF80004000
FF80000000
FF00000000
FF00000000
FF00000000
FF00000000
FF00000000
FF00000000
FF00000000
FF00000000
FF80000000
FF80000000
FF80007000
7FC000FF80
7FE000FF80
3FF001FF80
3FF803FF00
1FFFFFFF00
1FFFFFFE00
0FFFFFFC00
07FFFFF800
03FFFFF000
00FFFFE000
003FFF8000
0007FC0000
ENDCHAR
STARTCHAR 0064
ENCODING 100
SWIDTH 615 0
DWIDTH 41 0
BBX 33 49 3 -1
BITMAP
0000007F80
0000007F80
0000007F80
0000007F80
0000007F80
0000007F80
0000007F80
0000007F80
0000007F80
0000007F80
0000007F80
000FF07F80
007FFE7F80
01FFFFFF80
03FFFFFF80
07FFFFFF80
0FFFFFFF80
1FFFFFFF80
1FFE0FFF80
3FF803FF80
3FE001FF80
7FE000FF80
7FC0007F80
FF80007F80
FF80003F80
FF80003F80
FF80003F80
FF00003F80
FF00003F80
FF00003F80
FF00003F80
FF00003F80
FF00003F80
FF00003F80
FF80003F80
FF80003F80
FF80007F80
7FC0007F80
7FC000FF80
3FE001FF80
3FF803FF80
1FFE0FFF80
1FFFFFFF80
0FFFFFFF80
07FFFFFF80
03FFFFFF80
01FFFFBF80
007FFE3F80
000FF00000
ENDCHAR
STARTCHAR 0065
ENCODING 101
SWIDTH 600 0
DWIDTH 40 0
BBX 34 38 3 -1
BITMAP
0007FC0000
003FFF8000
00FFFFE000
01FFFFF000
07FFFFF800
0FFFFFFC00
0FFFFFFE00
1FFE07FF00
3FF001FF00
3FE000FF80
7FC0007F80
7FC0007F80
7F80003FC0
FF80003FC0
FF80003FC0
FFFFFFFFC0
FFFFFFFFC0
FFFFFFFFC0
FFFFFFFFC0
FFFFFFFFC0
FFFFFFFFC0
FF00000000
FF00000000
FF80000000
FF80000000
FF80002000
7FC0007C00
7FE0007F80
3FF000FFC0
3FF803FF80
1FFFFFFF00
0FFFFFFF00
0FFFFFFE00
07FFFFFC00
01FFFFF800
00FFFFE000
003FFF8000
0007FC0000
ENDCHAR
STARTCHAR 0066
ENCODING 102
SWIDTH 375 0
DWIDTH 25 0
BBX 23 49 2 0
BITMAP
0007FE
003FFE
007FFE
00FFFE
01FFFE
01FFFE
03FFFE
03FE00
03FC00
03FC00
03FC00
03FC00
03FC00
FFFFFE
FFFFFE
FFFFFE
FFFFFE
FFFFFE
FFFFFE
03FC00
03FC00
03FC00
03FC00
03FC00
03FC00
03FC00
03FC00
03FC00
03FC00
03FC00
03FC00
03FC00
03FC00
03FC00
03FC00
03FC00
03FC00
03FC00
03FC00
03FC00
03FC00
03FC00
03FC00
03FC00
03FC00
03FC00
03FC00
03FC00
03FC00
ENDCHAR
STARTCHAR 0067
ENCODING 103
SWIDTH 615 0
DWIDTH 41 0
BBX 33 54 3 -17
BITMAP
000FF80000
007FFE3F80
01FFFFBF80
03FFFFFF80
07FFFFFF80
0FFFFFFF80
1FFFFFFF80
1FFE0FFF80
3FF803FF80
3FE001FF80
7FE000FF80
7FC0007F80
FF80007F80
FF80003F80
FF80003F80
FF80003F80
FF00003F80
FF00003F80
FF00003F80
FF00003F80
FF00003F80
FF00003F80
FF00003F80
FF80003F80
FF80003F80
FF80007F80
7FC0007F80
7FC000FF80
3FE001FF80
3FF803FF80
1FFE0FFF80
1FFFFFFF80
0FFFFFFF80
07FFFFFF80
03FFFFFF80
01FFFFFF80
007FFE7F80
000FF07F80
0000007F80
0000007F80
0000007F80
0000007F80
000000FF80
00E000FF80
03E001FF80
0FF807FF00
1FFFFFFF00
1FFFFFFE00
0FFFFFFE00
07FFFFFC00
03FFFFF800
00FFFFE000
003FFF8000
000FFC0000
ENDCHAR
STARTCHAR 0068
ENCODING 104
SWIDTH 630 0
DWIDTH 42 0
BBX 33 48 5 0
BITMAP
FE00000000
FE00000000
FE00000000
FE00000000
FE00000000
FE00000000
FE00000000
FE00000000
FE00000000
FE00000000
FE00000000
FE03FE0000
FE1FFF8000
FE3FFFE000
FEFFFFF000
FFFFFFF800
FFFFFFFC00
FFFFFFFC00
FFFFFFFE00
FFF00FFE00
FFE007FF00
FFC003FF00
FF8001FF00
FF8001FF00
FF0000FF00
FF0000FF80
FF0000FF80
FF0000FF80
FF0000FF80
FF00007F80
FF00007F80
FF00007F80
FF00007F80
FF00007F80
FF00007F80
FF00007F80
FF00007F80
FF00007F80
FF00007F80
FF00007F80
FF00007F80
FF00007F80
FF00007F80
FF00007F80
FF00007F80
FF00007F80
FF00007F80
FF00007F80
ENDCHAR
STARTCHAR 0069
ENCODING 105
SWIDTH 285 0
DWIDTH 19 0
BBX 8 49 5 0
BITMAP
FF
FF
FF
FF
FF
FF
FF
00
00
00
00
00
00
FF
FF
FF
FF
FF
FF
FF
FF
FF
FF
FF
FF
FF
FF
FF
FF
FF
FF
FF
FF
FF
FF
FF
FF
FF
FF
FF
FF
FF
FF
FF
FF
FF
FF
FF
FF
ENDCHAR
STARTCHAR 006A
ENCODING 106
SWIDTH 285 0
DWIDTH 19 0
BBX 15 65 -1 -16
BITMAP
01FE
01FE
01FE
01FE
01FE
01FE
01FE
0000
0000
0000
0000
0000
0000
01FE
01FE
01FE
01FE
01FE
01FE
01FE
01FE
01FE
01FE
01FE
01FE
01FE
01FE
01FE
01FE
01FE
01FE
01FE
01FE
01FE
01FE
01FE
01FE
01FE
01FE
01FE
01FE
01FE
01FE
01FE
01FE
01FE
01FE
01FE
01FE
01FE
01FE
01FE
01FE
01FE
01FE
01FE
03FE
FFFE
FFFE
FFFE
FFFC
FFFC
FFF8
FFF0
FFC0
ENDCHAR
STARTCHAR 006B
ENCODING 107
SWIDTH 540 0
DWIDTH 36 0
BBX 32 48 5 0
BITMAP
FF000000
FF000000
FF000000
FF000000
FF000000
FF000000
FF000000
FF000000
FF000000
FF000000
FF000000
FF000000
FF0007FE
FF000FFC
FF001FF8
FF003FF0
FF003FF0
FF007FE0
FF00FFC0
FF01FF80
FF01FF00
FF03FF00
FF07FE00
FF0FFC00
FF1FF800
FF1FF800
FF3FF000
FF7FE000
FFFFC000
FFFF8000
FFFF8000
FFFFC000
FF7FE000
FF3FF000
FF1FF800
FF0FFC00
FF0FFE00
FF07FE00
FF03FF00
FF01FF80
FF00FFC0
FF00FFE0
FF007FF0
FF003FF0
FF001FF8
FF000FFC
FF000FFE
FF0007FF
ENDCHAR
STARTCHAR 006C
ENCODING 108
SWIDTH 285 0
DWIDTH 19 0
BBX 8 48 5 0
BITMAP
FF
FF
FF
FF
FF
FF
FF
FF
FF
FF
FF
FF
FF
FF
FF
FF
FF
FF
FF
FF
FF
FF
FF
FF
FF
FF
FF
FF
FF
FF
FF
FF
FF
FF
FF
FF
FF
FF
FF
FF
FF
FF
FF
FF
FF
FF
FF
FF
ENDCHAR
STARTCHAR 006D
ENCODING 109
SWIDTH 900 0
DWIDTH 60 0
BBX 51 37 5 0
BITMAP
0007F8001FE000
FE1FFE00FFF800
FE7FFF81FFFE00
FEFFFFC7FFFF00
FFFFFFEFFFFF00
FFFFFFEFFFFF80
FFFFFFFFFFFFC0
FFF07FFFC3FFC0
FFC01FFF00FFC0
FF800FFE007FE0
FF800FFC003FE0
FF0007FC003FE0
FF0007FC001FE0
FF0007F8001FE0
FF0007F8001FE0
FF0007F8001FE0
FF0007F8001FE0
FF0007F8001FE0
FF0007F8001FE0
FF0007F8001FE0
FF0007F8001FE0
FF0007F8001FE0
FF0007F8001FE0
FF0007F8001FE0
FF0007F8001FE0
FF0007F8001FE0
FF0007F8001FE0
FF0007F8001FE0
FF0007F8001FE0
FF0007F8001FE0
FF0007F8001FE0
FF0007F8001FE0
FF0007F8001FE0
FF0007F8001FE0
FF0007F8001FE0
FF0007F8001FE0
FF0007F8001FE0
ENDCHAR
STARTCHAR 006E
ENCODING 110
SWIDTH 630 0
DWIDTH 42 0
BBX 33 37 5 0
BITMAP
0003FE0000
FE1FFF8000
FE3FFFE000
FEFFFFF000
FFFFFFF800
FFFFFFFC00
FFFFFFFC00
FFFFFFFE00
FFF00FFE00
FFE007FF00
FFC003FF00
FF8001FF00
FF8001FF00
FF0000FF00
FF0000FF80
FF0000FF80
FF0000FF80
FF0000FF80
FF00007F80
FF00007F80
FF00007F80
FF00007F80
FF00007F80
FF00007F80
FF00007F80
FF00007F80
FF00007F80
FF00007F80
FF00007F80
FF00007F80
FF00007F80
FF00007F80
FF00007F80
FF00007F80
FF00007F80
FF00007F80
FF00007F80
ENDCHAR
STARTCHAR 006F
ENCODING 111
SWIDTH 615 0
DWIDTH 41 0
BBX 36 38 3 -1
BITMAP
0007FC0000
003FFF8000
00FFFFE000
01FFFFF800
07FFFFFC00
0FFFFFFE00
0FFFFFFF00
1FFFFFFF00
3FF803FF80
3FF001FF80
7FE000FFC0
7FC0007FC0
7F80003FE0
FF80003FE0
FF80003FE0
FF00001FE0
FF00001FE0
FF00001FE0
FF00001FF0
FF00001FF0
FF00001FE0
FF00001FE0
FF00001FE0
FF80003FE0
FF80003FE0
7F80003FE0
7FC0007FC0
7FE000FFC0
3FF001FF80
3FF803FF80
1FFFFFFF00
0FFFFFFF00
0FFFFFFE00
07FFFFFC00
03FFFFF800
00FFFFE000
003FFF8000
0007FC0000
ENDCHAR
STARTCHAR 0070
ENCODING 112
SWIDTH 615 0
DWIDTH 41 0
BBX 33 53 5 -16
BITMAP
000FF80000
FE3FFF0000
FEFFFF8000
FFFFFFE000
FFFFFFF000
FFFFFFF800
FFFFFFFC00
FFF83FFC00
FFE00FFE00
FFC003FE00
FF8003FF00
FF0001FF00
FF0000FF80
FE0000FF80
FE0000FF80
FE00007F80
FE00007F80
FE00007F80
FE00007F80
FE00007F80
FE00007F80
FE00007F80
FE00007F80
FE0000FF80
FE0000FF80
FF0000FF80
FF0001FF00
FF8001FF00
FFC003FE00
FFE00FFE00
FFF83FFC00
FFFFFFFC00
FFFFFFF800
FFFFFFF000
FFFFFFE000
FFFFFFC000
FF3FFF0000
FF07F80000
FF00000000
FF00000000
FF00000000
FF00000000
FF00000000
FF00000000
FF00000000
FF00000000
FF00000000
FF00000000
FF00000000
FF00000000
FF00000000
FF00000000
FF00000000
ENDCHAR
STARTCHAR 0071
ENCODING 113
SWIDTH 615 0
DWIDTH 41 0
BBX 33 53 3 -16
BITMAP
000FF80000
007FFE3F80
01FFFFBF80
03FFFFFF80
07FFFFFF80
0FFFFFFF80
1FFFFFFF80
1FFE0FFF80
3FF803FF80
3FE001FF80
7FE000FF80
7FC0007F80
FF80007F80
FF80003F80
FF80003F80
FF80003F80
FF00003F80
FF00003F80
FF00003F80
FF00003F80
FF00003F80
FF00003F80
FF00003F80
FF80003F80
FF80003F80
FF80007F80
7FC0007F80
7FC000FF80
3FE001FF80
3FF803FF80
1FFE0FFF80
1FFFFFFF80
0FFFFFFF80
07FFFFFF80
03FFFFFF80
01FFFFFF80
007FFE7F80
000FF07F80
0000007F80
0000007F80
0000007F80
0000007F80
0000007F80
0000007F80
0000007F80
0000007F80
0000007F80
0000007F80
0000007F80
0000007F80
0000007F80
0000007F80
0000007F80
ENDCHAR
STARTCHAR 0072
ENCODING 114
SWIDTH 405 0
DWIDTH 27 0
BBX 20 36 5 0
BITMAP
FE03F0
FE1FF0
FE3FF0
FE7FF0
FEFFF0
FFFFF0
FFFFF0
FFFF10
FFF800
FFE000
FFC000
FF8000
FF8000
FF0000
FF0000
FF0000
FF0000
FF0000
FF0000
FF0000
FF0000
FF0000
FF0000
FF0000
FF0000
FF0000
FF0000
FF0000
FF0000
FF0000
FF0000
FF0000
FF0000
FF0000
FF0000
FF0000
ENDCHAR
STARTCHAR 0073
ENCODING 115
SWIDTH 540 0
DWIDTH 36 0
BBX 30 38 3 -1
BITMAP
003FF000
01FFFE00
07FFFF80
0FFFFFC0
1FFFFFE0
3FFFFFF0
3FFFFFF8
7FE03FF8
7FC00FFC
7F8007FC
7F8007FC
7F800380
7FC00000
7FE00000
7FFC0000
3FFFC000
1FFFF800
0FFFFF00
07FFFFC0
01FFFFE0
003FFFF8
0007FFF8
00007FFC
00000FFC
000007FC
010003FC
FF0003FC
FF8003FC
FFC003FC
FFE007FC
7FF81FFC
7FFFFFF8
3FFFFFF8
1FFFFFF0
0FFFFFE0
07FFFFC0
01FFFF00
001FF800
ENDCHAR
STARTCHAR 0074
ENCODING 116
SWIDTH 435 0
DWIDTH 29 0
BBX 25 47 1 -2
BITMAP
03FC0000
03FC0000
03FC0000
03FC0000
03FC0000
03FC0000
03FC0000
03FC0000
03FC0000
03FC0000
FFFFFF80
FFFFFF80
FFFFFF80
FFFFFF80
FFFFFF80
FFFFFF80
03FC0000
03FC0000
03FC0000
03FC0000
03FC0000
03FC0000
03FC0000
03FC0000
03FC0000
03FC0000
03FC0000
03FC0000
03FC0000
03FC0000
03FC0000
03FC0000
03FC0000
03FC0000
03FC0000
03FC0000
03FC0000
03FE0000
03FF0000
01FF8000
01FFFF80
01FFFF80
00FFFF80
007FFF80
003FFF80
001FFF80
0003FF00
ENDCHAR
STARTCHAR 0075
ENCODING 117
SWIDTH 630 0
DWIDTH 42 0
BBX 33 37 4 -1
BITMAP
FF00007F80
FF00007F80
FF00007F80
FF00007F80
FF00007F80
FF00007F80
FF00007F80
FF00007F80
FF00007F80
FF00007F80
FF00007F80
FF00007F80
FF00007F80
FF00007F80
FF00007F80
FF00007F80
FF00007F80
FF00007F80
FF00007F80
FF00007F80
FF00007F80
FF00007F80
FF80007F80
FF8000FF80
FF8000FF80
FFC001FF80
7FC001FF80
7FE003FF80
7FF807FF80
3FFFFFFF80
3FFFFFFF80
1FFFFFFF80
0FFFFFBF80
07FFFF3F80
03FFFE3F80
01FFF83F80
003FC00000
ENDCHAR
STARTCHAR 0076
ENCODING 118
SWIDTH 555 0
DWIDTH 37 0
BBX 33 36 2 0
BITMAP
FF00007F80
FF00007F80
FF00007F80
7F8000FF00
7F8000FF00
7F8000FF00
3FC001FE00
3FC001FE00
3FC001FC00
1FE003FC00
1FE003FC00
1FE007F800
0FF007F800
0FF007F800
07F00FF000
07F80FF000
07F80FF000
03F81FE000
03FC1FE000
03FC1FC000
01FC3FC000
01FE3FC000
01FE3F8000
00FF7F8000
00FF7F8000
007F7F0000
007FFF0000
007FFF0000
003FFE0000
003FFE0000
003FFC0000
001FFC0000
001FFC0000
001FF80000
000FF80000
000FF80000
ENDCHAR
STARTCHAR 0077
ENCODING 119
SWIDTH 810 0
DWIDTH 54 0
BBX 51 36 1 0
BITMAP
FF0003F8001FE0
7F8003FC001FE0
7F8003FC001FC0
7F8007FC003FC0
3FC007FE003FC0
3FC007FE003F80
3FC00FFE007F80
1FC00FFE007F80
1FE00FFF007F80
1FE01FFF00FF00
0FE01FFF00FF00
0FF01FFF80FF00
0FF03FBF81FE00
0FF03FBF81FE00
07F83F9FC1FE00
07F83F1FC1FC00
07F87F1FC3FC00
03FC7F0FE3FC00
03FC7E0FE3FC00
03FCFE0FE7F800
01FCFE07E7F800
01FEFC07F7F800
01FFFC07FFF000
01FFFC03FFF000
00FFF803FFF000
00FFF803FFE000
00FFF801FFE000
007FF001FFE000
007FF001FFC000
007FF000FFC000
003FE000FFC000
003FE000FFC000
003FE0007F8000
001FC0007F8000
001FC0007F8000
001FC0003F0000
ENDCHAR
STARTCHAR 0078
ENCODING 120
SWIDTH 555 0
DWIDTH 37 0
BBX 35 36 1 0
BITMAP
FFC0007FE0
7FC000FFC0
3FE000FF80
3FF001FF00
1FF803FF00
0FF803FE00
07FC07FC00
07FE0FFC00
03FE0FF800
01FF1FF000
00FFBFE000
00FFFFE000
007FFFC000
003FFF8000
003FFF0000
001FFF0000
000FFE0000
0007FC0000
000FFE0000
000FFE0000
001FFF0000
003FFF8000
007FFF8000
007FFFC000
00FFBFE000
01FFBFF000
01FF1FF000
03FE0FF800
07FC07FC00
0FFC07FE00
0FF803FE00
1FF001FF00
3FF001FF80
7FE000FF80
7FC0007FC0
FF80007FE0
ENDCHAR
STARTCHAR 0079
ENCODING 121
SWIDTH 555 0
DWIDTH 37 0
BBX 36 52 1 -16
BITMAP
FF00000FF0
FF80001FE0
7F80001FE0
7FC0001FE0
3FC0003FC0
3FC0003FC0
3FE0007F80
1FE0007F80
1FE0007F80
0FF000FF00
0FF000FF00
0FF800FF00
07F801FE00
07F801FE00
03FC03FC00
03FC03FC00
03FE03FC00
01FE07F800
01FE07F800
00FF07F000
00FF0FF000
007F8FF000
007F9FE000
007F9FE000
003FDFE000
003FFFC000
001FFFC000
001FFF8000
001FFF8000
000FFF8000
000FFF0000
0007FF0000
0007FE0000
0007FE0000
0003FE0000
0003FC0000
0003FC0000
0003FC0000
0007F80000
0007F80000
0007F00000
000FF00000
000FF00000
001FE00000
001FE00000
001FC00000
003FC00000
003FC00000
003F800000
007F800000
007F800000
007F000000
ENDCHAR
STARTCHAR 007A
ENCODING 122
SWIDTH 540 0
DWIDTH 36 0
BBX 32 36 1 0
BITMAP
3FFFFFFF
3FFFFFFF
3FFFFFFE
3FFFFFFC
3FFFFFFC
3FFFFFF8
3FFFFFF0
00001FF0
00003FE0
00003FC0
00007FC0
0000FF80
0000FF00
0001FE00
0003FE00
0003FC00
0007F800
000FF800
000FF000
001FE000
003FE000
007FC000
007F8000
00FF8000
01FF0000
01FE0000
03FE0000
07FC0000
07F80000
0FFFFFFE
1FFFFFFE
1FFFFFFE
3FFFFFFE
7FFFFFFE
7FFFFFFE
FFFFFFFE
ENDCHAR
STARTCHAR 007B
ENCODING 123
SWIDTH 450 0
DWIDTH 30 0
BBX 18 74 9 -14
BITMAP
003FC0
00FFC0
01FFC0
03FFC0
07FFC0
07FFC0
07FFC0
0FFFC0
0FF000
0FF000
0FF000
0FF000
0FF000
0FF000
0FF000
0FF000
0FF000
0FF000
0FF000
0FF000
0FF000
0FF000
0FF000
0FF000
0FF000
0FF000
0FF000
0FF000
0FF000
0FF000
0FF000
1FF000
1FE000
3FE000
7FC000
7FC000
FF8000
FF8000
7FC000
7FC000
3FE000
1FE000
1FF000
0FF000
0FF000
0FF000
0FF000
0FF000
0FF000
0FF000
0FF000
0FF000
0FF000
0FF000
0FF000
0FF000
0FF000
0FF000
0FF000
0FF000
0FF000
0FF000
0FF000
0FF000
0FF000
0FF000
0FFFC0
07FFC0
07FFC0
07FFC0
03FFC0
01FFC0
00FFC0
003FC0
ENDCHAR
STARTCHAR 007C
ENCODING 124
SWIDTH 300 0
DWIDTH 20 0
BBX 8 48 6 0
BITMAP
FF
FF
FF
FF
FF
FF
FF
FF
FF
FF
FF
FF
FF
FF
FF
FF
FF
FF
FF
FF
FF
FF
FF
FF
FF
FF
FF
FF
FF
FF
FF
FF
FF
FF
FF
FF
FF
FF
FF
FF
FF
FF
FF
FF
FF
FF
FF
FF
ENDCHAR
STARTCHAR 007D
ENCODING 125
SWIDTH 450 0
DWIDTH 30 0
BBX 18 74 3 -14
BITMAP
FF0000
FFC000
FFE000
FFF000
FFF000
FFF800
FFF800
FFF800
07FC00
03FC00
03FC00
03FC00
03FC00
03FC00
03FC00
03FC00
03FC00
03FC00
03FC00
03FC00
03FC00
03FC00
03FC00
03FC00
03FC00
03FC00
03FC00
03FC00
03FC00
03FC00
03FC00
03FE00
03FE00
01FF00
01FF80
00FF80
007FC0
007FC0
00FF80
01FF80
01FF00
03FE00
03FE00
03FC00
03FC00
03FC00
03FC00
03FC00
03FC00
03FC00
03FC00
03FC00
03FC00
03FC00
03FC00
03FC00
03FC00
03FC00
03FC00
03FC00
03FC00
03FC00
03FC00
03FC00
03FC00
03FC00
FFF800
FFF800
FFF800
FFF800
FFF000
FFE000
FFC000
FF0000
ENDCHAR
STARTCHAR 007E
ENCODING 126
SWIDTH 720 0
DWIDTH 48 0
BBX 33 14 7 14
BITMAP
07F0000000
1FFE003F80
3FFF003F80
3FFFC03F80
7FFFE03F80
7FFFF87F80
7FFFFFFF80
FFFFFFFF80
FF8FFFFF80
FF03FFFF80
FF00FFFF00
FF007FFE00
7F001FFC00
000007F800
ENDCHAR
STARTCHAR 00A0
ENCODING 160
SWIDTH 195 0
DWIDTH 13 0
BBX 0 0 0 0
BITMAP
ENDCHAR
STARTCHAR 00A1
ENCODING 161
SWIDTH 360 0
DWIDTH 24 0
BBX 8 48 8 -12
BITMAP
FF
FF
FF
FF
FF
FF
FF
00
00
00
00
00
FF
FF
FF
FF
FF
FF
FF
FF
FF
FF
FF
FF
FF
FF
FF
FF
FF
FF
FF
FF
FF
FF
FF
FF
FF
FF
FF
FF
FF
FF
FF
FF
FF
FF
FF
FF
ENDCHAR
STARTCHAR 00A2
ENCODING 162
SWIDTH 570 0
DWIDTH 38 0
BBX 33 50 3 -2
BITMAP
0001F80000
0001F80000
0001F80000
0001F80000
0001F80000
0001F80000
0007FC0000
003FFF8000
00FFFFE000
03FFFFF000
07FFFFF800
0FFFFFFC00
1FFFFFFE00
1FFFFFFF00
3FF807FF00
3FF001FF80
7FE000FF80
7FC000FF80
7F80007C00
FF80004000
FF80000000
FF00000000
FF00000000
FF00000000
FF00000000
FF00000000
FF00000000
FF00000000
FF00000000
FF80000000
FF80000000
FF80007000
7FC000FF80
7FE000FF80
3FF001FF80
3FF803FF00
1FFFFFFF00
1FFFFFFE00
0FFFFFFC00
07FFFFF800
03FFFFF000
00FFFFE000
003FFF8000
0007FC0000
0001F80000
0001F80000
0001F80000
0001F80000
0001F80000
0001F80000
ENDCHAR
STARTCHAR 00A3
ENCODING 163
SWIDTH 570 0
DWIDTH 38 0
BBX 32 49 3 0
BITMAP
0001FC00
000FFF80
001FFFC0
007FFFF0
00FFFFF0
00FFFFF8
01FFFFFC
01FFFFFC
03FF03FE
03FE01FE
03FC00FF
07FC00FF
07FC007E
07FC0070
07FC0000
07FC0000
07FC0000
07FC0000
07FC0000
07FC0000
07FC0000
FFFFFF00
FFFFFF00
FFFFFF00
FFFFFF00
FFFFFF00
FFFFFF00
FFFFFF00
FFFFFF00
07FC0000
07FC0000
07FC0000
07FC0000
07FC0000
07FC0000
07FC0000
07FC0000
07FC0000
07FC0000
0FFC0000
1FFC0000
FFFFFFF8
FFFFFFF8
FFFFFFF8
FFFFFFF8
FFFFFFF8
FFFFFFF8
FFFFFFF8
FFFFFFF8
ENDCHAR
STARTCHAR 00A4
ENCODING 164
SWIDTH 675 0
DWIDTH 45 0
BBX 41 42 2 3
BITMAP
000000001000
0C0000003800
1E0000007C00
3F007F00FE00
7F83FFE1FF00
FFCFFFFBFF80
7FFFFFFFFF00
3FFFFFFFFE00
1FFFFFFFFC00
0FFFFFFFF800
07FF81FFF000
07FE003FE000
07FC001FF000
0FF8000FF000
0FF00007F800
0FE00003F800
1FE00003F800
1FC00003FC00
1FC00001FC00
1FC00001FC00
1FC00001FC00
1FC00001FC00
1FC00001FC00
1FC00001FC00
1FC00003FC00
1FE00003F800
0FE00003F800
0FF00007F800
0FF8000FF000
07FC001FF000
07FE003FE000
07FF81FFF000
0FFFFFFFF800
1FFFFFFFFC00
3FFFFFFFFE00
7FFFFFFFFF00
FFEFFFFBFF80
7FC3FFE1FF00
3F807F00FE00
1F0000007C00
0E0000003800
040000001000
ENDCHAR
STARTCHAR 00A5
ENCODING 165
SWIDTH 615 0
DWIDTH 41 0
BBX 40 48 0 0
BITMAP
FFC00001FF
7FC00001FF
7FE00003FE
3FE00007FE
1FF00007FC
1FF8000FFC
0FF8000FF8
0FFC001FF0
07FC003FF0
03FE003FE0
03FE007FE0
01FF007FC0
01FF80FFC0
00FF80FF80
00FFC1FF00
007FC3FF00
003FE3FE00
003FF7FE00
001FF7FC00
001FFFF800
000FFFF800
0007FFF000
0007FFF000
0003FFE000
01FFFFFFC0
01FFFFFFC0
01FFFFFFC0
01FFFFFFC0
01FFFFFFC0
01FFFFFFC0
0000FF0000
0000FF0000
0000FF0000
0000FF0000
0000FF0000
01FFFFFFC0
01FFFFFFC0
01FFFFFFC0
01FFFFFFC0
01FFFFFFC0
01FFFFFFC0
0000FF0000
0000FF0000
0000FF0000
0000FF0000
0000FF0000
0000FF0000
0000FF0000
ENDCHAR
STARTCHAR 00A6
ENCODING 166
SWIDTH 300 0
DWIDTH 20 0
BBX 8 62 6 -14
BITMAP
FF
FF
FF
FF
FF
FF
FF
FF
FF
FF
FF
FF
FF
FF
FF
FF
FF
FF
FF
FF
FF
FF
FF
FF
FF
FF
FF
00
00
00
00
00
00
00
FF
FF
FF
FF
FF
FF
FF
FF
FF
FF
FF
FF
FF
FF
FF
FF
FF
FF
FF
FF
FF
FF
FF
FF
FF
FF
FF
FF
ENDCHAR
STARTCHAR 00A7
ENCODING 167
SWIDTH 540 0
DWIDTH 36 0
BBX 31 53 3 -9
BITMAP
003FC000
01FFF800
07FFFE00
0FFFFF00
1FFFFF80
3FFFFFC0
3FFFFFE0
7FE07FE0
7FC03FF0
7F801FF0
7F800FF0
7F800E00
7FC00000
7FE00000
3FFE0000
3FFFC000
1FFFFC00
0FFFFF00
07FFFFC0
07FFFFF0
1FFFFFF8
3FF3FFFC
7FC07FFC
7F800FFC
FF0003FC
FF0003FE
FF0003FC
FF8003FC
FFC003FC
7FF807FC
7FFF0FF8
3FFFFFF8
1FFFFFF0
0FFFFFC0
03FFFFE0
00FFFFF0
000FFFF0
0001FFF8
00001FF8
00000FFC
008007FC
7F8007FC
7F8007FC
7FC007FC
7FE00FF8
3FF81FF8
3FFFFFF8
1FFFFFF0
0FFFFFE0
07FFFFC0
03FFFF80
00FFFE00
001FF000
ENDCHAR
STARTCHAR 00A8
ENCODING 168
SWIDTH 555 0
DWIDTH 37 0
BBX 21 7 8 54
BITMAP
FE03F8
FE03F8
FE03F8
FE03F8
FE03F8
FE03F8
FE03F8
ENDCHAR
STARTCHAR 00A9
ENCODING 169
SWIDTH 885 0
DWIDTH 59 0
BBX 55 55 2 -4
BITMAP
000003FF800000
00003FFFF00000
0000FFFFFE0000
0003FFFFFF8000
000FFFFFFFE000
001FFFFFFFF000
003FFFFFFFF800
007FFFFFFFFC00
00FFFC003FFE00
01FFE0000FFF00
03FF800003FF80
07FF000000FFC0
0FFC0000007FE0
0FF8003E003FE0
1FF003FFC01FF0
1FF00FFFF00FF0
3FE01FFFF80FF8
3FC03FFFFC07F8
7FC07FFFFE07FC
7F807FC3FE03FC
7F80FF00FF03FC
7F00FE007F01FC
FF00FC007C01FE
FF01FC000001FE
FF01FC000001FE
FF01F8000001FE
FF01F8000001FE
FF01F8000000FE
FF01F8000001FE
FF01F8000001FE
FF01FC000001FE
FF01FC000001FE
FF01FC007801FE
7F00FE007F01FC
7F80FF00FF03FC
7F807F81FE03FC
7FC07FFFFE07FC
3FC03FFFFC07F8
3FE01FFFF80FF8
1FE00FFFF00FF0
1FF003FFC01FF0
0FF8007E003FE0
0FFC0000007FE0
07FE000000FFC0
03FF800003FF80
01FFE0000FFF00
00FFF8003FFF00
007FFFFFFFFE00
003FFFFFFFF800
001FFFFFFFF000
000FFFFFFFE000
0003FFFFFF8000
0000FFFFFE0000
00001FFFF80000
000003FF800000
ENDCHAR
STARTCHAR 00AA
ENCODING 170
SWIDTH 315 0
DWIDTH 21 0
BBX 16 19 3 18
BITMAP
07E0
1FF8
3FFC
7FFE
FC3E
781F
001F
01FF
1FFF
7FFF
7FFF
FC1F
F01F
F01F
F03F
F87F
FFFF
7FEF
3F80
ENDCHAR
STARTCHAR 00AB
ENCODING 171
SWIDTH 585 0
DWIDTH 39 0
BBX 29 29 6 3
BITMAP
00100080
003801E0
007C01F0
00FE03F8
01FC07F0
01FC0FE0
03F81FC0
07F01FC0
0FE03F80
0FC07F00
1FC0FE00
3F80FC00
7F01FC00
FE03F800
FC07F000
FE07F000
7F03F800
7F01FC00
3F80FE00
1FC07F00
0FE07F00
07F03F80
07F01FC0
03F80FE0
01FC07F0
00FE07F0
007E03F8
007C01E0
003000C0
ENDCHAR
STARTCHAR 00AC
ENCODING 172
SWIDTH 600 0
DWIDTH 40 0
BBX 32 14 4 12
BITMAP
FFFFFFFF
FFFFFFFF
FFFFFFFF
FFFFFFFF
FFFFFFFF
FFFFFFFF
0000003F
0000003F
0000003F
0000003F
0000003F
0000003F
0000003F
0000003F
ENDCHAR
STARTCHAR 00AD
ENCODING 173
SWIDTH 420 0
DWIDTH 28 0
BBX 20 6 4 18
BITMAP
FFFFF0
FFFFF0
FFFFF0
FFFFF0
FFFFF0
FFFFF0
ENDCHAR
STARTCHAR 00AE
ENCODING 174
SWIDTH 660 0
DWIDTH 44 0
BBX 34 34 5 18
BITMAP
000FFC0000
007FFF0000
01FFFFC000
03FFFFF000
07FFFFF800
0FFC0FFC00
1FE001FC00
3FC000FE00
3F00007F00
7F1FF03F00
7E1FFC1F80
FC1FFE1F80
FC1C0E0F80
F81C0E0FC0
F81C0E0FC0
F81C0E07C0
F81FFE07C0
F81FFC07C0
F81FF807C0
F81C380FC0
FC1C3C0FC0
FC1C1C0F80
7E1C1E1F80
7E1C0E3F80
3F1C0F3F00
3F80007F00
1FC001FE00
1FF003FC00
0FFE3FF800
07FFFFF000
03FFFFE000
00FFFFC000
003FFF0000
0007F80000
ENDCHAR
STARTCHAR 00AF
ENCODING 175
SWIDTH 510 0
DWIDTH 34 0
BBX 18 6 8 56
BITMAP
FFFFC0
FFFFC0
FFFFC0
FFFFC0
FFFFC0
FFFFC0
ENDCHAR
STARTCHAR 00B0
ENCODING 176
SWIDTH 450 0
DWIDTH 30 0
BBX 24 24 2 25
BITMAP
007E00
03FFC0
07FFE0
0FFFF0
1FFFF8
3FFFFC
7FFFFE
7FC3FE
7F00FE
FF00FF
FE007F
FE007F
FE007F
FE007F
FF00FF
FF00FE
7FC3FE
7FFFFE
3FFFFC
1FFFF8
1FFFF0
07FFE0
03FFC0
00FF00
ENDCHAR
STARTCHAR 00B1
ENCODING 177
SWIDTH 600 0
DWIDTH 40 0
BBX 32 32 4 4
BITMAP
0007E000
0007E000
0007E000
0007E000
0007E000
0007E000
0007E000
0007E000
FFFFFFFF
FFFFFFFF
FFFFFFFF
FFFFFFFF
FFFFFFFF
FFFFFFFF
0007E000
0007E000
0007E000
0007E000
0007E000
0007E000
0007E000
0007E000
00000000
00000000
00000000
00000000
FFFFFFFF
FFFFFFFF
FFFFFFFF
FFFFFFFF
FFFFFFFF
FFFFFFFF
ENDCHAR
STARTCHAR 00B2
ENCODING 178
SWIDTH 405 0
DWIDTH 27 0
BBX 21 31 3 18
BITMAP
01FC00
07FF00
0FFFC0
1FFFE0
3FFFF0
7F07F0
7E03F8
7C01F8
FC00F8
FC00F8
0000F8
0001F8
0001F8
0003F8
0007F0
000FF0
001FE0
003FC0
007F80
00FF00
01FE00
03F800
07F000
0FE000
3FC000
7F8000
FFFFF8
FFFFF8
FFFFF8
FFFFF8
FFFFF8
ENDCHAR
STARTCHAR 00B3
ENCODING 179
SWIDTH 405 0
DWIDTH 27 0
BBX 20 31 3 17
BITMAP
7FFFE0
7FFFE0
7FFFE0
7FFFE0
7FFFE0
000FE0
001FC0
003F80
007F00
00FC00
03F800
07FC00
07FF00
03FF80
03FFC0
01BFE0
0007E0
0003E0
0003F0
0003F0
0001F0
0001F0
0803F0
F803F0
FC07E0
FE0FE0
7FFFC0
3FFF80
1FFF00
0FFE00
03F800
ENDCHAR
STARTCHAR 00B4
ENCODING 180
SWIDTH 540 0
DWIDTH 36 0
BBX 11 12 14 53
BITMAP
07E0
0FC0
0FC0
1F80
1F80
3F80
3F00
3F00
7E00
7E00
FE00
FC00
ENDCHAR
STARTCHAR 00B5
ENCODING 181
SWIDTH 630 0
DWIDTH 42 0
BBX 33 52 5 -16
BITMAP
FF00007F80
FF00007F80
FF00007F80
FF00007F80
FF00007F80
FF00007F80
FF00007F80
FF00007F80
FF00007F80
FF00007F80
FF00007F80
FF00007F80
FF00007F80
FF00007F80
FF00007F80
FF00007F80
FF00007F80
FF00007F80
FF00007F80
FF00007F80
FF0000FF80
FF0000FF80
FF0000FF80
FF8000FF80
FF8000FF80
FF8001FF80
FFC003FF80
FFE003FF80
FFF00FFF80
FFFFFFFF80
FFFFFFFF80
FFFFFFFF80
FFFFFFBF80
FFFFFF3F80
FFFFFE3F80
FFFFF83F80
FE3FC00000
FE00000000
FE00000000
FE00000000
FE00000000
FE00000000
FE00000000
FE00000000
FE00000000
FE00000000
FE00000000
FE00000000
FE00000000
FE00000000
FE00000000
FE00000000
ENDCHAR
STARTCHAR 00B6
ENCODING 182
SWIDTH 720 0
DWIDTH 48 0
BBX 41 57 3 -9
BITMAP
001FFFE07F80
00FFFFE07F80
03FFFFE07F80
07FFFFE07F80
0FFFFFE07F80
1FFFFFE07F80
3FFFFFE07F80
3FFFFFE07F80
7FFFFFE07F80
7FFFFFE07F80
7FFFFFE07F80
7FFFFFE07F80
FFFFFFE07F80
FFFFFFE07F80
FFFFFFE07F80
FFFFFFE07F80
FFFFFFE07F80
FFFFFFE07F80
FFFFFFE07F80
7FFFFFE07F80
7FFFFFE07F80
7FFFFFE07F80
7FFFFFE07F80
3FFFFFE07F80
3FFFFFE07F80
1FFFFFE07F80
0FFFFFE07F80
07FFFFE07F80
03FFFFE07F80
00FFFFE07F80
003FFFE07F80
00001FE07F80
00001FE07F80
00001FE07F80
00001FE07F80
00001FE07F80
00001FE07F80
00001FE07F80
00001FE07F80
00001FE07F80
00001FE07F80
00001FE07F80
00001FE07F80
00001FE07F80
00001FE07F80
00001FE07F80
00001FE07F80
00001FE07F80
00001FE07F80
00001FE07F80
00001FE07F80
00001FE07F80
00001FE07F80
00001FE07F80
00001FE07F80
00001FE07F80
00001FE07F80
ENDCHAR
STARTCHAR 00B7
ENCODING 183
SWIDTH 270 0
DWIDTH 18 0
BBX 10 10 4 16
BITMAP
1E00
7F00
7F80
FFC0
FFC0
FFC0
FF80
7F80
3F00
1E00
ENDCHAR
STARTCHAR 00B8
ENCODING 184
SWIDTH 420 0
DWIDTH 28 0
BBX 12 17 8 -16
BITMAP
0F80
1F00
1F00
1F00
3F80
3FC0
3FE0
0FE0
03E0
03F0
03F0
3FE0
7FE0
7FE0
FFC0
FF80
3E00
ENDCHAR
STARTCHAR 00B9
ENCODING 185
SWIDTH 345 0
DWIDTH 23 0
BBX 11 30 4 18
BITMAP
07E0
1FE0
7FE0
FFE0
FFE0
FFE0
F3E0
E3E0
83E0
03E0
03E0
03E0
03E0
03E0
03E0
03E0
03E0
03E0
03E0
03E0
03E0
03E0
03E0
03E0
03E0
03E0
03E0
03E0
03E0
03E0
ENDCHAR
STARTCHAR 00BA
ENCODING 186
SWIDTH 345 0
DWIDTH 23 0
BBX 18 19 3 18
BITMAP
03F000
1FFC00
3FFE00
7FFF00
7E1F80
F80F80
F80780
F007C0
F007C0
F007C0
F007C0
F007C0
F80780
F80F80
7E1F80
7FFF00
3FFE00
1FFC00
03F000
ENDCHAR
STARTCHAR 00BB
ENCODING 187
SWIDTH 585 0
DWIDTH 39 0
BBX 30 29 4 3
BITMAP
08004000
3C00E000
7C01F000
FE03F800
7F01FC00
3F81FC00
1FC0FE00
1FC07F00
0FE03F80
07F01FC0
03F81FC0
01FC0FE0
01FC07F0
00FE03F8
007F01FC
007F03F8
00FE07F0
01FC07F0
03F80FE0
07F01FC0
07F03F80
0FE07F00
1FC07F00
3F80FE00
7F01FC00
7F03F800
FE03F000
3C01F000
18006000
ENDCHAR
STARTCHAR 00BC
ENCODING 188
SWIDTH 1035 0
DWIDTH 69 0
BBX 57 48 4 0
BITMAP
07E0000000400000
1FE0000000700000
7FE0000000F80000
FFE0000001FC0000
FFE0000003F80000
FFE0000003F80000
F3E0000007F00000
E3E000000FE00000
83E000001FC00000
03E000001FC00000
03E000003F800000
03E000007F000000
03E00000FE000000
03E00000FE000000
03E00001FC000000
03E00003F8000000
03E00007F8000000
03E00007F0000000
03E0000FE007E000
03E0001FC007E000
03E0003FC00FC000
03E0003F800FC000
03E0007F001F8000
03E000FE001F8000
03E001FE003F0000
03E001FC003F0000
03E003F8007E0000
03E007F0007E0000
03E007F000FC0000
03E00FE000FC0000
00001FC001F80000
00003FC001F87C00
00003F8003F07C00
00007F0003F07C00
0000FE0007E07C00
0001FE0007E07C00
0001FC0007E07C00
0003F8000FC07C00
0007F0000FFFFF80
000FF0000FFFFF80
000FE0000FFFFF80
001FC0000FFFFF80
003FC0000FFFFF80
007F800000007C00
007F000000007C00
003E000000007C00
001E000000007C00
0004000000007C00
ENDCHAR
STARTCHAR 00BD
ENCODING 189
SWIDTH 1020 0
DWIDTH 68 0
BBX 60 48 4 0
BITMAP
07E0000000400000
1FE0000000700000
7FE0000000F80000
FFE0000001FC0000
FFE0000003F80000
FFE0000003F80000
F3E0000007F00000
E3E000000FE00000
83E000001FC00000
03E000001FC00000
03E000003F800000
03E000007F000000
03E00000FE000000
03E00000FE000000
03E00001FC000000
03E00003F8000000
03E00007F8000000
03E00007F001F800
03E0000FE00FFE00
03E0001FC01FFF80
03E0003FC03FFFC0
03E0003F807FFFE0
03E0007F00FF0FE0
03E000FE00FC03F0
03E000FE00FC03F0
03E001FC00F801F0
03E003F800F801F0
03E007F0000001F0
03E007F0000001F0
03E00FE0000003F0
00001FC0000003F0
00003FC0000007E0
00003F8000000FE0
00007F0000001FC0
0000FE0000007F80
0001FE000000FF00
0001FC000001FE00
0003F8000003FC00
0007F0000007F800
000FF000000FF000
000FE000001FC000
001FC000003F8000
003FC000007F0000
007F800001FFFFF0
007F000001FFFFF0
003E000001FFFFF0
001E000001FFFFF0
0004000001FFFFF0
ENDCHAR
STARTCHAR 00BE
ENCODING 190
SWIDTH 1035 0
DWIDTH 69 0
BBX 62 48 3 0
BITMAP
7FFFE00000020000
7FFFE00000038000
7FFFE0000007C000
7FFFE000000FE000
7FFFE000001FC000
000FE000001FC000
001FC000003F8000
003F8000007F0000
007F000000FE0000
00FC000000FE0000
03F8000001FC0000
07FC000003F80000
07FF000007F00000
03FF800007F00000
03FFC0000FE00000
01BFE0001FC00000
0007E0003FC00000
0003E0003F800000
0003F0007F003F00
0003F000FE007E00
0001F001FE007E00
0001F001FC00FC00
0803F003F800FC00
F803F007F001F800
FC07E00FF001F800
FE0FE00FE003F000
7FFFC01FC003F000
3FFF803F8007E000
1FFF003F8007E000
0FFE007F000FC000
03F800FE000FC000
000001FE001F83E0
000001FC001F83E0
000003F8003F03E0
000007F0003F03E0
00000FF0007E03E0
00000FE0007E03E0
00001FC0007E03E0
00003F8000FFFFFC
00007F8000FFFFFC
00007F0000FFFFFC
0000FE0000FFFFFC
0001FE0000FFFFFC
0003FC00000003E0
0003F800000003E0
0001F000000003E0
0000F000000003E0
00002000000003E0
ENDCHAR
STARTCHAR 00BF
ENCODING 191
SWIDTH 555 0
DWIDTH 37 0
BBX 31 49 3 -13
BITMAP
000FF000
000FF000
000FF000
000FF000
000FF000
000FF000
000FF000
000FF000
000FF000
00000000
00000000
00000000
00000000
000FF000
000FF000
000FF000
000FF000
001FF000
001FF000
003FE000
007FE000
00FFE000
01FFC000
03FF8000
07FF0000
0FFE0000
0FFC0000
1FF80000
3FF00000
3FE00000
7FC00000
7FC00000
7F800000
FF800000
FF800000
FF8003FE
FF8003FC
FF8003FC
7F8007FC
7FC007FC
7FE01FF8
3FFFFFF8
3FFFFFF0
1FFFFFF0
0FFFFFE0
07FFFFC0
03FFFF00
00FFFE00
001FF000
ENDCHAR
STARTCHAR 00C0
ENCODING 192
SWIDTH 675 0
DWIDTH 45 0
BBX 42 66 1 0
BITMAP
000FC0000000
0007E0000000
0007E0000000
0003F0000000
0003F0000000
0003F8000000
0001F8000000
0001F8000000
0000FC000000
0000FC000000
0000FE000000
00007E000000
00007E000000
000000000000
000000000000
000000000000
000000000000
000000000000
0001FFE00000
0001FFF00000
0001FFF00000
0003FFF00000
0003FFF80000
0003FFF80000
0007FFF80000
0007FFFC0000
0007FBFC0000
000FFBFC0000
000FFBFE0000
000FF1FE0000
000FF1FE0000
001FF1FF0000
001FE0FF0000
001FE0FF0000
003FE0FF0000
003FC07F8000
003FC07F8000
007FC07F8000
007F807FC000
007F803FC000
00FF803FC000
00FF003FE000
00FF001FE000
01FF001FE000
01FE001FF000
01FE000FF000
03FE000FF000
03FC000FF800
03FFFFFFF800
03FFFFFFF800
07FFFFFFFC00
07FFFFFFFC00
07FFFFFFFC00
0FFFFFFFFC00
0FFFFFFFFE00
0FFFFFFFFE00
1FF00001FE00
1FE00001FF00
1FE00000FF00
3FE00000FF00
3FC00000FF80
3FC000007F80
7FC000007F80
7F8000007FC0
7F8000003FC0
FF8000003FC0
ENDCHAR
STARTCHAR 00C1
ENCODING 193
SWIDTH 675 0
DWIDTH 45 0
BBX 42 66 1 0
BITMAP
000000FC0000
000000FC0000
000001FC0000
000001F80000
000001F80000
000003F00000
000003F00000
000007E00000
000007E00000
000007E00000
00000FC00000
00000FC00000
00001F800000
000000000000
000000000000
000000000000
000000000000
000000000000
0001FFE00000
0001FFF00000
0001FFF00000
0003FFF00000
0003FFF80000
0003FFF80000
0007FFF80000
0007FFFC0000
0007FFFC0000
000FFBFC0000
000FF3FE0000
000FF3FE0000
000FF1FE0000
001FE1FF0000
001FE1FF0000
001FE0FF0000
003FE0FF0000
003FC0FF8000
003FC07F8000
007FC07F8000
007F807FC000
007F803FC000
00FF803FC000
00FF003FE000
00FF001FE000
01FF001FE000
01FE001FF000
01FE000FF000
03FE000FF000
03FC000FF800
03FFFFFFF800
03FFFFFFF800
07FFFFFFFC00
07FFFFFFFC00
07FFFFFFFC00
0FFFFFFFFC00
0FFFFFFFFE00
0FFFFFFFFE00
1FF00001FE00
1FE00001FF00
1FE00000FF00
3FE00000FF00
3FC00000FF80
3FC000007F80
7FC000007F80
7F8000007FC0
7F8000003FC0
FF8000003FC0
ENDCHAR
STARTCHAR 00C2
ENCODING 194
SWIDTH 675 0
DWIDTH 45 0
BBX 42 64 1 0
BITMAP
00003F800000
00007FC00000
0000FFC00000
0001FFE00000
0003FFF00000
0003FBF80000
0007F3FC0000
000FE1FE0000
001FC0FF0000
003FC07F0000
007F803F8000
000000000000
000000000000
000000000000
000000000000
000000000000
0001FFE00000
0001FFF00000
0001FFF00000
0003FFF00000
0003FFF80000
0003FFF80000
0007FFF80000
0007FFFC0000
0007FFFC0000
000FFBFC0000
000FF3FE0000
000FF3FE0000
000FF1FE0000
001FE1FF0000
001FE1FF0000
001FE0FF0000
003FE0FF0000
003FC0FF8000
003FC07F8000
007FC07F8000
007F807FC000
007F803FC000
00FF803FC000
00FF003FE000
00FF001FE000
01FF001FE000
01FE001FF000
01FE000FF000
03FE000FF000
03FC000FF800
03FFFFFFF800
03FFFFFFF800
07FFFFFFFC00
07FFFFFFFC00
07FFFFFFFC00
0FFFFFFFFC00
0FFFFFFFFE00
0FFFFFFFFE00
1FF00001FE00
1FE00001FF00
1FE00000FF00
3FE00000FF00
3FC00000FF80
3FC000007F80
7FC000007F80
7F8000007FC0
7F8000003FC0
FF8000003FC0
ENDCHAR
STARTCHAR 00C3
ENCODING 195
SWIDTH 675 0
DWIDTH 45 0
BBX 42 66 1 0
BITMAP
0007C0000000
000FF00F8000
001FFC0F8000
003FFE0F8000
003FFF9F8000
003FFFFF8000
003E3FFF8000
003E1FFF8000
003E07FF0000
003E03FE0000
000000FC0000
000000000000
000000000000
000000000000
000000000000
000000000000
000000000000
000000000000
0001FFE00000
0001FFF00000
0001FFF00000
0003FFF00000
0003FFF80000
0003FFF80000
0007FFF80000
0007FFFC0000
0007FFFC0000
000FFBFC0000
000FF3FE0000
000FF3FE0000
000FF1FE0000
001FE1FF0000
001FE1FF0000
001FE0FF0000
003FE0FF0000
003FC0FF8000
003FC07F8000
007FC07F8000
007F807FC000
007F803FC000
00FF803FC000
00FF003FE000
00FF001FE000
01FF001FE000
01FE001FF000
01FE000FF000
03FE000FF000
03FC000FF800
03FFFFFFF800
03FFFFFFF800
07FFFFFFFC00
07FFFFFFFC00
07FFFFFFFC00
0FFFFFFFFC00
0FFFFFFFFE00
0FFFFFFFFE00
1FF00001FE00
1FE00001FF00
1FE00000FF00
3FE00000FF00
3FC00000FF80
3FC000007F80
7FC000007F80
7F8000007FC0
7F8000003FC0
FF8000003FC0
ENDCHAR
STARTCHAR 00C4
ENCODING 196
SWIDTH 675 0
DWIDTH 45 0
BBX 42 61 1 0
BITMAP
001FC07F0000
001FC07F0000
001FC07F0000
001FC07F0000
001FC07F0000
001FC07F0000
001FC07F0000
000000000000
000000000000
000000000000
000000000000
000000000000
000000000000
0001FFE00000
0001FFF00000
0001FFF00000
0003FFF00000
0003FFF80000
0003FFF80000
0007FFF80000
0007FFFC0000
0007FFFC0000
000FFBFC0000
000FF3FE0000
000FF3FE0000
000FF1FE0000
001FE1FF0000
001FE1FF0000
001FE0FF0000
003FE0FF0000
003FC0FF8000
003FC07F8000
007FC07F8000
007F807FC000
007F803FC000
00FF803FC000
00FF003FE000
00FF001FE000
01FF001FE000
01FE001FF000
01FE000FF000
03FE000FF000
03FC000FF800
03FFFFFFF800
03FFFFFFF800
07FFFFFFFC00
07FFFFFFFC00
07FFFFFFFC00
0FFFFFFFFC00
0FFFFFFFFE00
0FFFFFFFFE00
1FF00001FE00
1FE00001FF00
1FE00000FF00
3FE00000FF00
3FC00000FF80
3FC000007F80
7FC000007F80
7F8000007FC0
7F8000003FC0
FF8000003FC0
ENDCHAR
STARTCHAR 00C5
ENCODING 197
SWIDTH 675 0
DWIDTH 45 0
BBX 42 69 1 0
BITMAP
00001F000000
00007FC00000
0001FFE00000
0001FFF00000
0003FFF80000
0007F1F80000
0007C0FC0000
0007C07C0000
0007C07C0000
0007C07C0000
0007C0FC0000
0007E1F80000
0003FFF80000
0003FFF00000
0001FFE00000
00007FC00000
00001F000000
000000000000
000000000000
000000000000
000000000000
0001FFE00000
0001FFF00000
0001FFF00000
0003FFF00000
0003FFF80000
0003FFF80000
0007FFF80000
0007FFFC0000
0007FFFC0000
000FFBFC0000
000FF3FE0000
000FF3FE0000
000FF1FE0000
001FE1FF0000
001FE1FF0000
001FE0FF0000
003FE0FF0000
003FC0FF8000
003FC07F8000
007FC07F8000
007F807FC000
007F803FC000
00FF803FC000
00FF003FE000
00FF001FE000
01FF001FE000
01FE001FF000
01FE000FF000
03FE000FF000
03FC000FF800
03FFFFFFF800
03FFFFFFF800
07FFFFFFFC00
07FFFFFFFC00
07FFFFFFFC00
0FFFFFFFFC00
0FFFFFFFFE00
0FFFFFFFFE00
1FF00001FE00
1FE00001FF00
1FE00000FF00
3FE00000FF00
3FC00000FF80
3FC000007F80
7FC000007F80
7F8000007FC0
7F8000003FC0
FF8000003FC0
ENDCHAR
STARTCHAR 00C6
ENCODING 198
SWIDTH 945 0
DWIDTH 63 0
BBX 58 48 1 0
BITMAP
0001FFFFFFFFFFC0
0001FFFFFFFFFFC0
0001FFFFFFFFFFC0
0003FFFFFFFFFFC0
0003FFFFFFFFFFC0
0003FFFFFFFFFFC0
0007FFFFFFFFFFC0
0007FFFFFFFFFFC0
0007F81FE0000000
000FF81FE0000000
000FF01FE0000000
000FF01FE0000000
000FF01FE0000000
001FE01FE0000000
001FE01FE0000000
001FE01FE0000000
003FC01FE0000000
003FC01FE0000000
003FC01FE0000000
007FC01FFFFFFC00
007F801FFFFFFC00
007F801FFFFFFC00
00FF801FFFFFFC00
00FF001FFFFFFC00
00FF001FFFFFFC00
01FF001FFFFFFC00
01FE001FFFFFFC00
01FE001FE0000000
03FE001FE0000000
03FC001FE0000000
03FFFFFFE0000000
03FFFFFFE0000000
07FFFFFFE0000000
07FFFFFFE0000000
07FFFFFFE0000000
0FFFFFFFE0000000
0FFFFFFFE0000000
0FFFFFFFE0000000
1FF0001FE0000000
1FE0001FE0000000
1FE0001FFFFFFFC0
3FE0001FFFFFFFC0
3FC0001FFFFFFFC0
3FC0001FFFFFFFC0
7FC0001FFFFFFFC0
7F80001FFFFFFFC0
7F80001FFFFFFFC0
FF80001FFFFFFFC0
ENDCHAR
STARTCHAR 00C7
ENCODING 199
SWIDTH 735 0
DWIDTH 49 0
BBX 44 65 2 -16
BITMAP
00003FF00000
0003FFFF0000
000FFFFFC000
003FFFFFF000
007FFFFFF800
01FFFFFFFC00
03FFFFFFFE00
03FFFFFFFF00
07FF8007FF80
0FFE0001FFC0
1FFC0000FFC0
1FF800007FE0
3FF000003FE0
3FE000001FF0
3FE000001FF0
7FC000000FF0
7FC000000F00
7F8000000800
7F8000000000
FF8000000000
FF8000000000
FF8000000000
FF8000000000
FF0000000000
FF0000000000
FF0000000000
FF0000000000
FF8000000000
FF8000000000
FF8000000000
FF8000000000
7F8000000000
7F8000000800
7FC000000F00
7FC000000FF0
3FE000001FF0
3FE000001FF0
3FF000003FF0
1FF800007FE0
1FFC0000FFC0
0FFE0001FFC0
07FF8007FF80
03FFFFFFFF00
03FFFFFFFF00
01FFFFFFFE00
007FFFFFF800
003FFFFFF000
000FFFFFC000
0003FFFF0000
00003FF80000
000007C00000
00000F800000
00000FC00000
00000FF00000
00001FF00000
000007F80000
000001F80000
000000F80000
000001F80000
00001FF80000
00001FF80000
00003FF00000
00003FF00000
00003FE00000
00001F800000
ENDCHAR
STARTCHAR 00C8
ENCODING 200
SWIDTH 585 0
DWIDTH 39 0
BBX 31 66 5 0
BITMAP
00FC0000
00FC0000
00FE0000
007E0000
007E0000
003F0000
003F0000
001F8000
001F8000
001FC000
000FC000
000FC000
0007E000
00000000
00000000
00000000
00000000
00000000
FFFFFFFE
FFFFFFFE
FFFFFFFE
FFFFFFFE
FFFFFFFE
FFFFFFFE
FFFFFFFE
FFFFFFFE
FF000000
FF000000
FF000000
FF000000
FF000000
FF000000
FF000000
FF000000
FF000000
FF000000
FF000000
FFFFFFE0
FFFFFFE0
FFFFFFE0
FFFFFFE0
FFFFFFE0
FFFFFFE0
FFFFFFE0
FFFFFFE0
FF000000
FF000000
FF000000
FF000000
FF000000
FF000000
FF000000
FF000000
FF000000
FF000000
FF000000
FF000000
FF000000
FFFFFFFE
FFFFFFFE
FFFFFFFE
FFFFFFFE
FFFFFFFE
FFFFFFFE
FFFFFFFE
FFFFFFFE
ENDCHAR
STARTCHAR 00C9
ENCODING 201
SWIDTH 585 0
DWIDTH 39 0
BBX 31 66 5 0
BITMAP
00003F00
00003F00
00007E00
00007E00
0000FE00
0000FC00
0000FC00
0001F800
0001F800
0003F800
0003F000
0003F000
0007E000
00000000
00000000
00000000
00000000
00000000
FFFFFFFE
FFFFFFFE
FFFFFFFE
FFFFFFFE
FFFFFFFE
FFFFFFFE
FFFFFFFE
FFFFFFFE
FF000000
FF000000
FF000000
FF000000
FF000000
FF000000
FF000000
FF000000
FF000000
FF000000
FF000000
FFFFFFE0
FFFFFFE0
FFFFFFE0
FFFFFFE0
FFFFFFE0
FFFFFFE0
FFFFFFE0
FFFFFFE0
FF000000
FF000000
FF000000
FF000000
FF000000
FF000000
FF000000
FF000000
FF000000
FF000000
FF000000
FF000000
FF000000
FFFFFFFE
FFFFFFFE
FFFFFFFE
FFFFFFFE
FFFFFFFE
FFFFFFFE
FFFFFFFE
FFFFFFFE
ENDCHAR
STARTCHAR 00CA
ENCODING 202
SWIDTH 585 0
DWIDTH 39 0
BBX 31 64 5 0
BITMAP
001FC000
003FE000
003FF000
007FF800
00FFFC00
01FDFC00
03FCFE00
07F87F00
0FF03F80
0FE03FC0
1FC01FE0
00000000
00000000
00000000
00000000
00000000
FFFFFFFE
FFFFFFFE
FFFFFFFE
FFFFFFFE
FFFFFFFE
FFFFFFFE
FFFFFFFE
FFFFFFFE
FF000000
FF000000
FF000000
FF000000
FF000000
FF000000
FF000000
FF000000
FF000000
FF000000
FF000000
FFFFFFE0
FFFFFFE0
FFFFFFE0
FFFFFFE0
FFFFFFE0
FFFFFFE0
FFFFFFE0
FFFFFFE0
FF000000
FF000000
FF000000
FF000000
FF000000
FF000000
FF000000
FF000000
FF000000
FF000000
FF000000
FF000000
FF000000
FFFFFFFE
FFFFFFFE
FFFFFFFE
FFFFFFFE
FFFFFFFE
FFFFFFFE
FFFFFFFE
FFFFFFFE
ENDCHAR
STARTCHAR 00CB
ENCODING 203
SWIDTH 585 0
DWIDTH 39 0
BBX 31 61 5 0
BITMAP
0FF03FC0
0FF03FC0
0FF03FC0
0FF03FC0
0FF03FC0
0FF03FC0
0FF03FC0
00000000
00000000
00000000
00000000
00000000
00000000
FFFFFFFE
FFFFFFFE
FFFFFFFE
FFFFFFFE
FFFFFFFE
FFFFFFFE
FFFFFFFE
FFFFFFFE
FF000000
FF000000
FF000000
FF000000
FF000000
FF000000
FF000000
FF000000
FF000000
FF000000
FF000000
FFFFFFE0
FFFFFFE0
FFFFFFE0
FFFFFFE0
FFFFFFE0
FFFFFFE0
FFFFFFE0
FFFFFFE0
FF000000
FF000000
FF000000
FF000000
FF000000
FF000000
FF000000
FF000000
FF000000
FF000000
FF000000
FF000000
FF000000
FFFFFFFE
FFFFFFFE
FFFFFFFE
FFFFFFFE
FFFFFFFE
FFFFFFFE
FFFFFFFE
FFFFFFFE
ENDCHAR
STARTCHAR 00CC
ENCODING 204
SWIDTH 285 0
DWIDTH 19 0
BBX 12 65 1 0
BITMAP
FC00
7E00
7E00
3F00
3F00
3F80
1F80
1F80
0FC0
0FC0
07E0
07E0
0000
0000
0000
0000
0000
0FF0
0FF0
0FF0
0FF0
0FF0
0FF0
0FF0
0FF0
0FF0
0FF0
0FF0
0FF0
0FF0
0FF0
0FF0
0FF0
0FF0
0FF0
0FF0
0FF0
0FF0
0FF0
0FF0
0FF0
0FF0
0FF0
0FF0
0FF0
0FF0
0FF0
0FF0
0FF0
0FF0
0FF0
0FF0
0FF0
0FF0
0FF0
0FF0
0FF0
0FF0
0FF0
0FF0
0FF0
0FF0
0FF0
0FF0
0FF0
ENDCHAR
STARTCHAR 00CD
ENCODING 205
SWIDTH 285 0
DWIDTH 19 0
BBX 12 65 5 0
BITMAP
03F0
03F0
07E0
07E0
07E0
0FC0
0FC0
1F80
1F80
3F80
3F00
3F00
0000
0000
0000
0000
0000
FF00
FF00
FF00
FF00
FF00
FF00
FF00
FF00
FF00
FF00
FF00
FF00
FF00
FF00
FF00
FF00
FF00
FF00
FF00
FF00
FF00
FF00
FF00
FF00
FF00
FF00
FF00
FF00
FF00
FF00
FF00
FF00
FF00
FF00
FF00
FF00
FF00
FF00
FF00
FF00
FF00
FF00
FF00
FF00
FF00
FF00
FF00
FF00
ENDCHAR
STARTCHAR 00CE
ENCODING 206
SWIDTH 285 0
DWIDTH 19 0
BBX 24 64 -3 0
BITMAP
007F00
00FF00
01FF80
03FFC0
07FFE0
0FF7F0
0FE7F8
1FC3FC
3F81FE
7F80FE
FF007F
000000
000000
000000
000000
000000
00FF00
00FF00
00FF00
00FF00
00FF00
00FF00
00FF00
00FF00
00FF00
00FF00
00FF00
00FF00
00FF00
00FF00
00FF00
00FF00
00FF00
00FF00
00FF00
00FF00
00FF00
00FF00
00FF00
00FF00
00FF00
00FF00
00FF00
00FF00
00FF00
00FF00
00FF00
00FF00
00FF00
00FF00
00FF00
00FF00
00FF00
00FF00
00FF00
00FF00
00FF00
00FF00
00FF00
00FF00
00FF00
00FF00
00FF00
00FF00
ENDCHAR
STARTCHAR 00CF
ENCODING 207
SWIDTH 285 0
DWIDTH 19 0
BBX 21 61 -1 0
BITMAP
FE03F8
FE03F8
FE03F8
FE03F8
FE03F8
FE03F8
FE03F8
000000
000000
000000
000000
000000
000000
03FC00
03FC00
03FC00
03FC00
03FC00
03FC00
03FC00
03FC00
03FC00
03FC00
03FC00
03FC00
03FC00
03FC00
03FC00
03FC00
03FC00
03FC00
03FC00
03FC00
03FC00
03FC00
03FC00
03FC00
03FC00
03FC00
03FC00
03FC00
03FC00
03FC00
03FC00
03FC00
03FC00
03FC00
03FC00
03FC00
03FC00
03FC00
03FC00
03FC00
03FC00
03FC00
03FC00
03FC00
03FC00
03FC00
03FC00
03FC00
ENDCHAR
STARTCHAR 00D0
ENCODING 208
SWIDTH 705 0
DWIDTH 47 0
BBX 43 48 1 0
BITMAP
0FFFFFC00000
0FFFFFFC0000
0FFFFFFF0000
0FFFFFFF8000
0FFFFFFFE000
0FFFFFFFF000
0FFFFFFFF800
0FFFFFFFFC00
0FF0003FFC00
0FF0000FFE00
0FF00007FF00
0FF00003FF00
0FF00001FF00
0FF00000FF80
0FF00000FF80
0FF000007F80
0FF000007FC0
0FF000007FC0
0FF000007FC0
0FF000003FC0
0FF000003FC0
FFFFFC003FC0
FFFFFC003FE0
FFFFFC003FE0
FFFFFC003FE0
FFFFFC003FE0
FFFFFC003FC0
0FF000003FC0
0FF000003FC0
0FF000007FC0
0FF000007FC0
0FF000007FC0
0FF000007F80
0FF00000FF80
0FF00000FF80
0FF00001FF00
0FF00003FF00
0FF00007FE00
0FF0000FFE00
0FF0003FFC00
0FFFFFFFFC00
0FFFFFFFF800
0FFFFFFFF000
0FFFFFFFE000
0FFFFFFF8000
0FFFFFFF0000
0FFFFFFC0000
0FFFFFC00000
ENDCHAR
STARTCHAR 00D1
ENCODING 209
SWIDTH 720 0
DWIDTH 48 0
BBX 38 64 5 0
BITMAP
000F000000
003FC03E00
007FF03E00
007FF83E00
00FFFE3E00
00FFFFFE00
00FCFFFE00
00F83FFE00
00F81FFC00
00F807F800
000001F000
0000000000
0000000000
0000000000
0000000000
0000000000
FF000003FC
FF800003FC
FF800003FC
FFC00003FC
FFE00003FC
FFE00003FC
FFF00003FC
FFF80003FC
FFF80003FC
FFFC0003FC
FFFE0003FC
FFFE0003FC
FFFF0003FC
FFFF8003FC
FFFF8003FC
FF7FC003FC
FF7FE003FC
FF3FE003FC
FF1FF003FC
FF1FF803FC
FF0FF803FC
FF07FC03FC
FF07FE03FC
FF03FE03FC
FF01FF03FC
FF01FF83FC
FF00FF83FC
FF007FC3FC
FF007FE3FC
FF003FE3FC
FF001FF3FC
FF001FFBFC
FF000FFBFC
FF0007FFFC
FF0007FFFC
FF0003FFFC
FF0003FFFC
FF0001FFFC
FF0000FFFC
FF0000FFFC
FF00007FFC
FF00003FFC
FF00003FFC
FF00001FFC
FF00000FFC
FF00000FFC
FF000007FC
FF000003FC
ENDCHAR
STARTCHAR 00D2
ENCODING 210
SWIDTH 750 0
DWIDTH 50 0
BBX 46 67 2 -1
BITMAP
0003F0000000
0003F8000000
0001F8000000
0001F8000000
0000FC000000
0000FC000000
00007E000000
00007E000000
00007F000000
00003F000000
00003F000000
00001F800000
00001F800000
000000000000
000000000000
000000000000
000000000000
00003FF00000
0003FFFF0000
000FFFFFC000
003FFFFFF000
007FFFFFF800
01FFFFFFFC00
03FFFFFFFE00
03FFFFFFFF00
07FF800FFF80
0FFE0003FFC0
1FFC0000FFC0
1FF800007FE0
3FF000003FE0
3FE000001FF0
3FE000001FF0
7FC000000FF8
7FC000000FF8
7F8000000FF8
7F80000007F8
FF80000007FC
FF80000007FC
FF80000007FC
FF80000007FC
FF80000007FC
FF80000007FC
FF00000007FC
FF80000007FC
FF80000007FC
FF80000007FC
FF80000007FC
FF80000007FC
7F80000007F8
7F8000000FF8
7FC000000FF8
7FC000000FF8
3FE000001FF0
3FE000001FF0
3FF000003FE0
1FF800007FE0
1FFC0000FFC0
0FFE0001FFC0
07FF8007FF80
03FFFFFFFF00
03FFFFFFFE00
01FFFFFFFC00
007FFFFFF800
003FFFFFF000
000FFFFFC000
0003FFFF0000
00003FF00000
ENDCHAR
STARTCHAR 00D3
ENCODING 211
SWIDTH 750 0
DWIDTH 50 0
BBX 46 67 2 -1
BITMAP
0000007F0000
0000007E0000
0000007E0000
000000FC0000
000000FC0000
000001F80000
000001F80000
000003F80000
000003F00000
000003F00000
000007E00000
000007E00000
00000FE00000
000000000000
000000000000
000000000000
000000000000
00003FF00000
0003FFFF0000
000FFFFFC000
003FFFFFF000
007FFFFFF800
01FFFFFFFC00
03FFFFFFFE00
03FFFFFFFF00
07FF800FFF80
0FFE0003FFC0
1FFC0000FFC0
1FF800007FE0
3FF000003FE0
3FE000001FF0
3FE000001FF0
7FC000000FF8
7FC000000FF8
7F8000000FF8
7F80000007F8
FF80000007FC
FF80000007FC
FF80000007FC
FF80000007FC
FF80000007FC
FF80000007FC
FF00000007FC
FF80000007FC
FF80000007FC
FF80000007FC
FF80000007FC
FF80000007FC
7F80000007F8
7F8000000FF8
7FC000000FF8
7FC000000FF8
3FE000001FF0
3FE000001FF0
3FF000003FE0
1FF800007FE0
1FFC0000FFC0
0FFE0001FFC0
07FF8007FF80
03FFFFFFFF00
03FFFFFFFE00
01FFFFFFFC00
007FFFFFF800
003FFFFFF000
000FFFFFC000
0003FFFF0000
00003FF00000
ENDCHAR
STARTCHAR 00D4
ENCODING 212
SWIDTH 750 0
DWIDTH 50 0
BBX 46 65 2 -1
BITMAP
00001FC00000
00001FE00000
00003FF00000
00007FF80000
0000FFFC0000
0001FFFE0000
0003FCFE0000
0007F87F0000
0007F03F8000
000FE01FC000
001FC01FE000
000000000000
000000000000
000000000000
000000000000
00003FF00000
0003FFFF0000
000FFFFFC000
003FFFFFF000
007FFFFFF800
01FFFFFFFC00
03FFFFFFFE00
03FFFFFFFF00
07FF800FFF80
0FFE0003FFC0
1FFC0000FFC0
1FF800007FE0
3FF000003FE0
3FE000001FF0
3FE000001FF0
7FC000000FF8
7FC000000FF8
7F8000000FF8
7F80000007F8
FF80000007FC
FF80000007FC
FF80000007FC
FF80000007FC
FF80000007FC
FF80000007FC
FF00000007FC
FF80000007FC
FF80000007FC
FF80000007FC
FF80000007FC
FF80000007FC
7F80000007F8
7F8000000FF8
7FC000000FF8
7FC000000FF8
3FE000001FF0
3FE000001FF0
3FF000003FE0
1FF800007FE0
1FFC0000FFC0
0FFE0001FFC0
07FF8007FF80
03FFFFFFFF00
03FFFFFFFE00
01FFFFFFFC00
007FFFFFF800
003FFFFFF000
000FFFFFC000
0003FFFF0000
00003FF00000
ENDCHAR
STARTCHAR 00D5
ENCODING 213
SWIDTH 750 0
DWIDTH 50 0
BBX 46 65 2 -1
BITMAP
0000F0000000
0003FC03E000
0007FF03E000
000FFF83E000
000FFFE7E000
000FFFFFE000
000F8FFFE000
000F83FFE000
000F81FFC000
000F807F8000
0000001E0000
000000000000
000000000000
000000000000
000000000000
00003FF00000
0003FFFF0000
000FFFFFC000
003FFFFFF000
007FFFFFF800
01FFFFFFFC00
03FFFFFFFE00
03FFFFFFFF00
07FF800FFF80
0FFE0003FFC0
1FFC0000FFC0
1FF800007FE0
3FF000003FE0
3FE000001FF0
3FE000001FF0
7FC000000FF8
7FC000000FF8
7F8000000FF8
7F80000007F8
FF80000007FC
FF80000007FC
FF80000007FC
FF80000007FC
FF80000007FC
FF80000007FC
FF00000007FC
FF80000007FC
FF80000007FC
FF80000007FC
FF80000007FC
FF80000007FC
7F80000007F8
7F8000000FF8
7FC000000FF8
7FC000000FF8
3FE000001FF0
3FE000001FF0
3FF000003FE0
1FF800007FE0
1FFC0000FFC0
0FFE0001FFC0
07FF8007FF80
03FFFFFFFF00
03FFFFFFFE00
01FFFFFFFC00
007FFFFFF800
003FFFFFF000
000FFFFFC000
0003FFFF0000
00003FF00000
ENDCHAR
STARTCHAR 00D6
ENCODING 214
SWIDTH 750 0
DWIDTH 50 0
BBX 46 62 2 -1
BITMAP
000FF03FC000
000FF03FC000
000FF03FC000
000FF03FC000
000FF03FC000
000FF03FC000
000FF03FC000
000000000000
000000000000
000000000000
000000000000
000000000000
00003FF00000
0003FFFF0000
000FFFFFC000
003FFFFFF000
007FFFFFF800
01FFFFFFFC00
03FFFFFFFE00
03FFFFFFFF00
07FF800FFF80
0FFE0003FFC0
1FFC0000FFC0
1FF800007FE0
3FF000003FE0
3FE000001FF0
3FE000001FF0
7FC000000FF8
7FC000000FF8
7F8000000FF8
7F80000007F8
FF80000007FC
FF80000007FC
FF80000007FC
FF80000007FC
FF80000007FC
FF80000007FC
FF00000007FC
FF80000007FC
FF80000007FC
FF80000007FC
FF80000007FC
FF80000007FC
7F80000007F8
7F8000000FF8
7FC000000FF8
7FC000000FF8
3FE000001FF0
3FE000001FF0
3FF000003FE0
1FF800007FE0
1FFC0000FFC0
0FFE0001FFC0
07FF8007FF80
03FFFFFFFF00
03FFFFFFFE00
01FFFFFFFC00
007FFFFFF800
003FFFFFF000
000FFFFFC000
0003FFFF0000
00003FF00000
ENDCHAR
STARTCHAR 00D7
ENCODING 215
SWIDTH 510 0
DWIDTH 34 0
BBX 26 26 4 11
BITMAP
08000400
1C000E00
3E001F00
7F003F80
FF807FC0
7FC0FF80
3FE1FF00
1FF3FE00
0FFFFC00
07FFF800
03FFF000
01FFE000
00FFC000
00FFC000
01FFE000
03FFF000
07FFF800
0FFFFC00
1FF3FE00
3FE1FF00
7FC0FF80
FF807FC0
7F003F80
3E001F00
1C000E00
08000400
ENDCHAR
STARTCHAR 00D8
ENCODING 216
SWIDTH 750 0
DWIDTH 50 0
BBX 46 50 2 -1
BITMAP
00003FF00080
0003FFFF01C0
000FFFFFC3E0
003FFFFFF7F0
007FFFFFFFFC
01FFFFFFFFFC
03FFFFFFFFF8
03FFFFFFFFF0
07FF800FFFE0
0FFE0001FFC0
1FFC0000FFE0
1FF80001FFE0
3FF00003FFF0
3FE00007FFF0
3FE0000FFFF0
7FC0001FFFF8
7FC0003FFFF8
7F80007FEFF8
7F8000FFC7F8
FF8001FF87FC
FF8001FF07FC
FF8003FE07FC
FF8007FE07FC
FF800FFC07FC
FF801FF807FC
FF803FF007FC
FF807FE007FC
FF80FFC007FC
FF81FF8007FC
FF81FF0007FC
FF83FE0007FC
7F87FE0007F8
7F8FFC000FF8
7FDFF8000FF8
7FFFF0000FF8
3FFFE0001FF0
3FFFC0001FF0
3FFF80003FE0
1FFF00007FE0
1FFE0000FFC0
0FFE0001FFC0
0FFF8007FF80
1FFFFFFFFF00
3FFFFFFFFE00
7FFFFFFFFC00
7FFFFFFFF800
3FBFFFFFF000
0F8FFFFFC000
0703FFFF0000
02007FF00000
ENDCHAR
STARTCHAR 00D9
ENCODING 217
SWIDTH 720 0
DWIDTH 48 0
BBX 38 67 5 -1
BITMAP
001FC00000
000FC00000
000FC00000
0007E00000
0007E00000
0007F00000
0003F00000
0003F00000
0001F80000
0001F80000
0000FC0000
0000FC0000
0000FC0000
0000000000
0000000000
0000000000
0000000000
0000000000
FF000003FC
FF000003FC
FF000003FC
FF000003FC
FF000003FC
FF000003FC
FF000003FC
FF000003FC
FF000003FC
FF000003FC
FF000003FC
FF000003FC
FF000003FC
FF000003FC
FF000003FC
FF000003FC
FF000003FC
FF000003FC
FF000003FC
FF000003FC
FF000003FC
FF000003FC
FF000003FC
FF000003FC
FF000003FC
FF000003FC
FF000003FC
FF000003FC
FF000003FC
FF000003FC
FF000003FC
FF000003FC
FF000003FC
FF000003FC
FF800007FC
FF800007FC
7FC0000FF8
7FC0000FF8
7FE0001FF8
3FF8007FF0
3FFC00FFF0
1FFFFFFFE0
0FFFFFFFC0
07FFFFFF80
03FFFFFF00
01FFFFFE00
007FFFF800
001FFFE000
0003FF0000
ENDCHAR
STARTCHAR 00DA
ENCODING 218
SWIDTH 720 0
DWIDTH 48 0
BBX 38 67 5 -1
BITMAP
000007E000
00000FE000
00000FC000
00000FC000
00001F8000
00001F8000
00003F0000
00003F0000
00003F0000
00007E0000
00007E0000
0000FC0000
0000FC0000
0000000000
0000000000
0000000000
0000000000
0000000000
FF000003FC
FF000003FC
FF000003FC
FF000003FC
FF000003FC
FF000003FC
FF000003FC
FF000003FC
FF000003FC
FF000003FC
FF000003FC
FF000003FC
FF000003FC
FF000003FC
FF000003FC
FF000003FC
FF000003FC
FF000003FC
FF000003FC
FF000003FC
FF000003FC
FF000003FC
FF000003FC
FF000003FC
FF000003FC
FF000003FC
FF000003FC
FF000003FC
FF000003FC
FF000003FC
FF000003FC
FF000003FC
FF000003FC
FF000003FC
FF800007FC
FF800007FC
7FC0000FF8
7FC0000FF8
7FE0001FF8
3FF8007FF0
3FFC00FFF0
1FFFFFFFE0
0FFFFFFFC0
07FFFFFF80
03FFFFFF00
01FFFFFE00
007FFFF800
001FFFE000
0003FF0000
ENDCHAR
STARTCHAR 00DB
ENCODING 219
SWIDTH 720 0
DWIDTH 48 0
BBX 38 65 5 -1
BITMAP
0001FC0000
0001FE0000
0003FF0000
0007FF8000
000FFFC000
001FFFE000
003FCFE000
007F87F000
007F03F800
00FE01FC00
01FC01FE00
0000000000
0000000000
0000000000
0000000000
0000000000
FF000003FC
FF000003FC
FF000003FC
FF000003FC
FF000003FC
FF000003FC
FF000003FC
FF000003FC
FF000003FC
FF000003FC
FF000003FC
FF000003FC
FF000003FC
FF000003FC
FF000003FC
FF000003FC
FF000003FC
FF000003FC
FF000003FC
FF000003FC
FF000003FC
FF000003FC
FF000003FC
FF000003FC
FF000003FC
FF000003FC
FF000003FC
FF000003FC
FF000003FC
FF000003FC
FF000003FC
FF000003FC
FF000003FC
FF000003FC
FF800007FC
FF800007FC
7FC0000FF8
7FC0000FF8
7FE0001FF8
3FF8007FF0
3FFC00FFF0
1FFFFFFFE0
0FFFFFFFC0
07FFFFFF80
03FFFFFF00
01FFFFFE00
007FFFF800
001FFFE000
0003FF0000
ENDCHAR
STARTCHAR 00DC
ENCODING 220
SWIDTH 720 0
DWIDTH 48 0
BBX 38 62 5 -1
BITMAP
00FF03FC00
00FF03FC00
00FF03FC00
00FF03FC00
00FF03FC00
00FF03FC00
00FF03FC00
0000000000
0000000000
0000000000
0000000000
0000000000
0000000000
FF000003FC
FF000003FC
FF000003FC
FF000003FC
FF000003FC
FF000003FC
FF000003FC
FF000003FC
FF000003FC
FF000003FC
FF000003FC
FF000003FC
FF000003FC
FF000003FC
FF000003FC
FF000003FC
FF000003FC
FF000003FC
FF000003FC
FF000003FC
FF000003FC
FF000003FC
FF000003FC
FF000003FC
FF000003FC
FF000003FC
FF000003FC
FF000003FC
FF000003FC
FF000003FC
FF000003FC
FF000003FC
FF000003FC
FF000003FC
FF800007FC
FF800007FC
7FC0000FF8
7FC0000FF8
7FE0001FF8
3FF8007FF0
3FFC00FFF0
1FFFFFFFE0
0FFFFFFFC0
07FFFFFF80
03FFFFFF00
01FFFFFE00
007FFFF800
001FFFE000
0003FF0000
ENDCHAR
STARTCHAR 00DD
ENCODING 221
SWIDTH 615 0
DWIDTH 41 0
BBX 40 66 0 0
BITMAP
000003F000
000003F000
000007F000
000007E000
000007E000
00000FC000
00000FC000
00001F8000
00001F8000
00001F8000
00003F0000
00003F0000
00007E0000
0000000000
0000000000
0000000000
0000000000
0000000000
FFC00001FF
7FC00001FF
7FE00003FE
3FE00007FE
1FF00007FC
1FF8000FFC
0FF8000FF8
0FFC001FF0
07FC001FF0
07FE003FE0
03FE007FE0
01FF007FC0
01FF80FFC0
00FF80FF80
00FFC1FF00
007FC3FF00
007FE3FE00
003FE7FE00
001FF7FC00
001FFFFC00
000FFFF800
000FFFF000
0007FFF000
0003FFE000
0003FFE000
0001FFC000
0001FFC000
0000FF8000
0000FF0000
0000FF0000
0000FF0000
0000FF0000
0000FF0000
0000FF0000
0000FF0000
0000FF0000
0000FF0000
0000FF0000
0000FF0000
0000FF0000
0000FF0000
0000FF0000
0000FF0000
0000FF0000
0000FF0000
0000FF0000
0000FF0000
0000FF0000
ENDCHAR
STARTCHAR 00DE
ENCODING 222
SWIDTH 630 0
DWIDTH 42 0
BBX 35 48 5 0
BITMAP
FF00000000
FF00000000
FF00000000
FF00000000
FF00000000
FF00000000
FF00000000
FF00000000
FFFFF00000
FFFFFF8000
FFFFFFE000
FFFFFFF800
FFFFFFFC00
FFFFFFFE00
FFFFFFFF00
FFFFFFFF00
FF0003FF80
FF0001FF80
FF00007FC0
FF00007FC0
FF00003FE0
FF00003FE0
FF00001FE0
FF00001FE0
FF00001FE0
FF00001FE0
FF00003FE0
FF00003FE0
FF00007FC0
FF00007FC0
FF0001FFC0
FF0003FF80
FFFFFFFF00
FFFFFFFF00
FFFFFFFE00
FFFFFFFC00
FFFFFFF800
FFFFFFE000
FFFFFF8000
FFFFF00000
FF00000000
FF00000000
FF00000000
FF00000000
FF00000000
FF00000000
FF00000000
FF00000000
ENDCHAR
STARTCHAR 00DF
ENCODING 223
SWIDTH 630 0
DWIDTH 42 0
BBX 33 50 5 -1
BITMAP
003FE00000
01FFF80000
07FFFE0000
0FFFFF8000
1FFFFFC000
3FFFFFE000
7FFFFFE000
7FFFFFF000
FFE03FF000
FF800FF800
FF800FF800
FF0007F800
FF0007F800
FF0007F800
FF0007F800
FF0007F800
FF0007F800
FF000FF800
FF001FF000
FF007FF000
FF03FFE000
FF03FFC000
FF03FF8000
FF03FFE000
FF03FFF800
FF03FFFC00
FF03FFFE00
FF001FFE00
FF0003FF00
FF0001FF00
FF0000FF80
FF00007F80
FF00007F80
FF00007F80
FF00007F80
FF00007F80
FF00007F80
FF00007F80
FF0000FF80
FF0000FF80
FF0001FF00
FF0807FF00
FF0FFFFF00
FF0FFFFE00
FF0FFFFE00
FF0FFFFC00
FF0FFFF800
FF0FFFE000
FF0FFFC000
0007FE0000
ENDCHAR
STARTCHAR 00E0
ENCODING 224
SWIDTH 570 0
DWIDTH 38 0
BBX 31 54 3 -1
BITMAP
007E0000
007E0000
003F0000
003F0000
003F8000
001F8000
001F8000
000FC000
000FC000
0007E000
0007E000
0007F000
00000000
00000000
00000000
00000000
001FF800
00FFFF00
03FFFFC0
07FFFFF0
0FFFFFF8
1FFFFFF8
3FFFFFFC
3FFE7FFC
7FF007FE
7FC003FE
3F8001FE
038001FE
000001FE
000001FE
0000FFFE
001FFFFE
01FFFFFE
07FFFFFE
0FFFFFFE
3FFFFFFE
3FFFF1FE
7FFE01FE
FFE001FE
FF8001FE
FF0001FE
FF0001FE
FF0003FE
FF0003FE
FF0007FE
FF000FFE
FF803FFE
FFF9FFFE
7FFFFFFE
3FFFFEFE
3FFFFCFE
0FFFF8FE
07FFE0FE
00FF0000
ENDCHAR
STARTCHAR 00E1
ENCODING 225
SWIDTH 570 0
DWIDTH 38 0
BBX 31 54 3 -1
BITMAP
00001F80
00003F00
00003F00
00007E00
00007E00
0000FE00
0000FC00
0000FC00
0001F800
0001F800
0003F800
0003F000
00000000
00000000
00000000
00000000
001FF800
00FFFF00
03FFFFC0
07FFFFF0
0FFFFFF8
1FFFFFF8
3FFFFFFC
3FFE7FFC
7FF007FE
7FC003FE
3F8001FE
038001FE
000001FE
000001FE
0000FFFE
001FFFFE
01FFFFFE
07FFFFFE
0FFFFFFE
3FFFFFFE
3FFFF1FE
7FFE01FE
FFE001FE
FF8001FE
FF0001FE
FF0001FE
FF0003FE
FF0003FE
FF0007FE
FF000FFE
FF803FFE
FFF9FFFE
7FFFFFFE
3FFFFEFE
3FFFFCFE
0FFFF8FE
07FFE0FE
00FF0000
ENDCHAR
STARTCHAR 00E2
ENCODING 226
SWIDTH 570 0
DWIDTH 38 0
BBX 31 53 3 -1
BITMAP
0007F000
000FF800
000FFC00
001FFE00
003FFF00
007F7F00
00FE3F80
01FE1FC0
03FC0FE0
07F80FF0
07F007F8
00000000
00000000
00000000
00000000
001FF800
00FFFF00
03FFFFC0
07FFFFF0
0FFFFFF8
1FFFFFF8
3FFFFFFC
3FFE7FFC
7FF007FE
7FC003FE
3F8001FE
038001FE
000001FE
000001FE
0000FFFE
001FFFFE
01FFFFFE
07FFFFFE
0FFFFFFE
3FFFFFFE
3FFFF1FE
7FFE01FE
FFE001FE
FF8001FE
FF0001FE
FF0001FE
FF0003FE
FF0003FE
FF0007FE
FF000FFE
FF803FFE
FFF9FFFE
7FFFFFFE
3FFFFEFE
3FFFFCFE
0FFFF8FE
07FFE0FE
00FF0000
ENDCHAR
STARTCHAR 00E3
ENCODING 227
SWIDTH 570 0
DWIDTH 38 0
BBX 31 53 3 -1
BITMAP
007C0000
00FF00F8
01FFC0F8
03FFE0F8
03FFF9F8
03FFFFF8
03E3FFF8
03E0FFF0
03E07FF0
03E01FE0
00000780
00000000
00000000
00000000
00000000
001FF800
00FFFF00
03FFFFC0
07FFFFF0
0FFFFFF8
1FFFFFF8
3FFFFFFC
3FFE7FFC
7FF007FE
7FC003FE
3F8001FE
038001FE
000001FE
000001FE
0000FFFE
001FFFFE
01FFFFFE
07FFFFFE
0FFFFFFE
3FFFFFFE
3FFFF1FE
7FFE01FE
FFE001FE
FF8001FE
FF0001FE
FF0001FE
FF0003FE
FF0003FE
FF0007FE
FF000FFE
FF803FFE
FFF9FFFE
7FFFFFFE
3FFFFEFE
3FFFFCFE
0FFFF8FE
07FFE0FE
00FF0000
ENDCHAR
STARTCHAR 00E4
ENCODING 228
SWIDTH 570 0
DWIDTH 38 0
BBX 31 50 3 -1
BITMAP
03FC0FE0
03FC0FE0
03FC0FE0
03FC0FE0
03FC0FE0
03FC0FE0
03FC0FE0
00000000
00000000
00000000
00000000
00000000
001FF800
00FFFF00
03FFFFC0
07FFFFF0
0FFFFFF8
1FFFFFF8
3FFFFFFC
3FFE7FFC
7FF007FE
7FC003FE
3F8001FE
038001FE
000001FE
000001FE
0000FFFE
001FFFFE
01FFFFFE
07FFFFFE
0FFFFFFE
3FFFFFFE
3FFFF1FE
7FFE01FE
FFE001FE
FF8001FE
FF0001FE
FF0001FE
FF0003FE
FF0003FE
FF0007FE
FF000FFE
FF803FFE
FFF9FFFE
7FFFFFFE
3FFFFEFE
3FFFFCFE
0FFFF8FE
07FFE0FE
00FF0000
ENDCHAR
STARTCHAR 00E5
ENCODING 229
SWIDTH 570 0
DWIDTH 38 0
BBX 31 58 3 -1
BITMAP
0003E000
000FF800
001FFE00
003FFE00
007FFF00
007E3F80
00FC0F80
00F80F80
00F80F80
00F80F80
00FC0F80
007E1F80
007FFF00
003FFF00
001FFE00
000FFC00
0003F000
00000000
00000000
00000000
001FF800
00FFFF00
03FFFFC0
07FFFFF0
0FFFFFF8
1FFFFFF8
3FFFFFFC
3FFE7FFC
7FF007FE
7FC003FE
3F8001FE
038001FE
000001FE
000001FE
0000FFFE
001FFFFE
01FFFFFE
07FFFFFE
0FFFFFFE
3FFFFFFE
3FFFF1FE
7FFE01FE
FFE001FE
FF8001FE
FF0001FE
FF0001FE
FF0003FE
FF0003FE
FF0007FE
FF000FFE
FF803FFE
FFF9FFFE
7FFFFFFE
3FFFFEFE
3FFFFCFE
0FFFF8FE
07FFE0FE
00FF0000
ENDCHAR
STARTCHAR 00E6
ENCODING 230
SWIDTH 930 0
DWIDTH 62 0
BBX 57 38 3 -1
BITMAP
000FF8000FF80000
007FFF003FFF0000
01FFFFC0FFFFC000
03FFFFE3FFFFE000
07FFFFF7FFFFF000
0FFFFFFFFFFFF800
1FFFFFFFFFFFF800
3FFE7FFFFC0FFC00
3FF007FFF003FE00
7FC003FFE001FE00
3F8003FFC000FE00
078001FF8000FF00
000001FF8000FF00
000001FF80007F00
000001FF00007F00
00003FFFFFFFFF00
001FFFFFFFFFFF80
01FFFFFFFFFFFF80
07FFFFFFFFFFFF80
1FFFFFFFFFFFFF80
3FFFFFFFFFFFFF80
7FFE01FF00000000
7FE001FF00000000
FF8001FF00000000
FF0001FF80000000
FF0001FF80000000
FF0003FF8000F000
FF0003FFC001FE00
FF0007FFE003FF00
FF000FFFF807FE00
FF803FFFFFFFFE00
FFF3FFCFFFFFFC00
7FFFFF8FFFFFF800
7FFFFF07FFFFF000
3FFFFE03FFFFE000
0FFFFC00FFFFC000
07FFF0003FFF0000
00FF800007F80000
ENDCHAR
STARTCHAR 00E7
ENCODING 231
SWIDTH 570 0
DWIDTH 38 0
BBX 33 53 3 -16
BITMAP
0007FC0000
003FFF8000
00FFFFE000
03FFFFF000
07FFFFF800
0FFFFFFC00
1FFFFFFE00
1FFFFFFF00
3FF807FF00
3FF001FF80
7FE000FF80
7FC000FF80
7F80007C00
FF80004000
FF80000000
FF00000000
FF00000000
FF00000000
FF00000000
FF00000000
FF00000000
FF00000000
FF00000000
FF80000000
FF80000000
FF80007000
7FC000FF80
7FE000FF80
3FE001FF80
3FF803FF00
1FFF3FFF00
1FFFFFFE00
0FFFFFFC00
07FFFFF800
03FFFFF000
00FFFFE000
007FFF8000
000FFC0000
0001F00000
0003E00000
0003F00000
0003F80000
0007FC0000
0001FE0000
00007E0000
00007E0000
00007E0000
0007FE0000
0007FE0000
000FFC0000
000FFC0000
000FF80000
0007E00000
ENDCHAR
STARTCHAR 00E8
ENCODING 232
SWIDTH 600 0
DWIDTH 40 0
BBX 34 55 3 -1
BITMAP
007F000000
003F000000
003F000000
001F800000
001F800000
000FC00000
000FC00000
000FC00000
0007E00000
0007E00000
0003F00000
0003F00000
0003F80000
0000000000
0000000000
0000000000
0000000000
0007FC0000
003FFF8000
00FFFFE000
01FFFFF000
07FFFFF800
0FFFFFFC00
0FFFFFFE00
1FFE07FF00
3FF001FF00
3FE000FF80
7FC0007F80
7FC0007F80
7F80003FC0
FF80003FC0
FF80003FC0
FFFFFFFFC0
FFFFFFFFC0
FFFFFFFFC0
FFFFFFFFC0
FFFFFFFFC0
FFFFFFFFC0
FF00000000
FF00000000
FF80000000
FF80000000
FF80002000
7FC0007C00
7FE0007F80
3FF000FFC0
3FF803FF80
1FFFFFFF00
0FFFFFFF00
0FFFFFFE00
07FFFFFC00
01FFFFF800
00FFFFE000
003FFF8000
0007FC0000
ENDCHAR
STARTCHAR 00E9
ENCODING 233
SWIDTH 600 0
DWIDTH 40 0
BBX 34 55 3 -1
BITMAP
00000FE000
00000FC000
00000FC000
00001F8000
00001F8000
00003F0000
00003F0000
00007F0000
00007E0000
00007E0000
0000FC0000
0000FC0000
0001FC0000
0000000000
0000000000
0000000000
0000000000
0007FC0000
003FFF8000
00FFFFE000
01FFFFF000
07FFFFF800
0FFFFFFC00
0FFFFFFE00
1FFE07FF00
3FF001FF00
3FE000FF80
7FC0007F80
7FC0007F80
7F80003FC0
FF80003FC0
FF80003FC0
FFFFFFFFC0
FFFFFFFFC0
FFFFFFFFC0
FFFFFFFFC0
FFFFFFFFC0
FFFFFFFFC0
FF00000000
FF00000000
FF80000000
FF80000000
FF80002000
7FC0007C00
7FE0007F80
3FF000FFC0
3FF803FF80
1FFFFFFF00
0FFFFFFF00
0FFFFFFE00
07FFFFFC00
01FFFFF800
00FFFFE000
003FFF8000
0007FC0000
ENDCHAR
STARTCHAR 00EA
ENCODING 234
SWIDTH 600 0
DWIDTH 40 0
BBX 34 53 3 -1
BITMAP
0003F80000
0007FC0000
000FFE0000
001FFE0000
001FFF0000
003FBF8000
007F1FC000
00FE1FE000
01FE0FF000
03FC07F800
07F803FC00
0000000000
0000000000
0000000000
0000000000
0007FC0000
003FFF8000
00FFFFE000
01FFFFF000
07FFFFF800
0FFFFFFC00
0FFFFFFE00
1FFE07FF00
3FF001FF00
3FE000FF80
7FC0007F80
7FC0007F80
7F80003FC0
FF80003FC0
FF80003FC0
FFFFFFFFC0
FFFFFFFFC0
FFFFFFFFC0
FFFFFFFFC0
FFFFFFFFC0
FFFFFFFFC0
FF00000000
FF00000000
FF80000000
FF80000000
FF80002000
7FC0007C00
7FE0007F80
3FF000FFC0
3FF803FF80
1FFFFFFF00
0FFFFFFF00
0FFFFFFE00
07FFFFFC00
01FFFFF800
00FFFFE000
003FFF8000
0007FC0000
ENDCHAR
STARTCHAR 00EB
ENCODING 235
SWIDTH 600 0
DWIDTH 40 0
BBX 34 50 3 -1
BITMAP
01FC07F000
01FC07F000
01FC07F000
01FC07F000
01FC07F000
01FC07F000
01FC07F000
0000000000
0000000000
0000000000
0000000000
0000000000
0007FC0000
003FFF8000
00FFFFE000
01FFFFF000
07FFFFF800
0FFFFFFC00
0FFFFFFE00
1FFE07FF00
3FF001FF00
3FE000FF80
7FC0007F80
7FC0007F80
7F80003FC0
FF80003FC0
FF80003FC0
FFFFFFFFC0
FFFFFFFFC0
FFFFFFFFC0
FFFFFFFFC0
FFFFFFFFC0
FFFFFFFFC0
FF00000000
FF00000000
FF80000000
FF80000000
FF80002000
7FC0007C00
7FE0007F80
3FF000FFC0
3FF803FF80
1FFFFFFF00
0FFFFFFF00
0FFFFFFE00
07FFFFFC00
01FFFFF800
00FFFFE000
003FFF8000
0007FC0000
ENDCHAR
STARTCHAR 00EC
ENCODING 236
SWIDTH 285 0
DWIDTH 19 0
BBX 12 54 1 0
BITMAP
FC00
FE00
7E00
7E00
3F00
3F00
1F80
1F80
1F80
0FC0
0FC0
07E0
07E0
0000
0000
0000
0000
0000
0FF0
0FF0
0FF0
0FF0
0FF0
0FF0
0FF0
0FF0
0FF0
0FF0
0FF0
0FF0
0FF0
0FF0
0FF0
0FF0
0FF0
0FF0
0FF0
0FF0
0FF0
0FF0
0FF0
0FF0
0FF0
0FF0
0FF0
0FF0
0FF0
0FF0
0FF0
0FF0
0FF0
0FF0
0FF0
0FF0
ENDCHAR
STARTCHAR 00ED
ENCODING 237
SWIDTH 285 0
DWIDTH 19 0
BBX 13 54 5 0
BITMAP
01F8
03F0
03F0
07E0
07E0
0FE0
0FC0
0FC0
1F80
1F80
3F80
3F00
3F00
0000
0000
0000
0000
0000
FF00
FF00
FF00
FF00
FF00
FF00
FF00
FF00
FF00
FF00
FF00
FF00
FF00
FF00
FF00
FF00
FF00
FF00
FF00
FF00
FF00
FF00
FF00
FF00
FF00
FF00
FF00
FF00
FF00
FF00
FF00
FF00
FF00
FF00
FF00
FF00
ENDCHAR
STARTCHAR 00EE
ENCODING 238
SWIDTH 285 0
DWIDTH 19 0
BBX 24 52 -2 0
BITMAP
00FE00
00FF00
01FF80
03FFC0
07FFE0
0FEFF0
1FE7F0
3FC3F8
7F81FC
7F01FE
FE00FF
000000
000000
000000
000000
000000
01FE00
01FE00
01FE00
01FE00
01FE00
01FE00
01FE00
01FE00
01FE00
01FE00
01FE00
01FE00
01FE00
01FE00
01FE00
01FE00
01FE00
01FE00
01FE00
01FE00
01FE00
01FE00
01FE00
01FE00
01FE00
01FE00
01FE00
01FE00
01FE00
01FE00
01FE00
01FE00
01FE00
01FE00
01FE00
01FE00
ENDCHAR
STARTCHAR 00EF
ENCODING 239
SWIDTH 285 0
DWIDTH 19 0
BBX 21 49 -1 0
BITMAP
FE03F8
FE03F8
FE03F8
FE03F8
FE03F8
FE03F8
FE03F8
000000
000000
000000
000000
000000
000000
03FC00
03FC00
03FC00
03FC00
03FC00
03FC00
03FC00
03FC00
03FC00
03FC00
03FC00
03FC00
03FC00
03FC00
03FC00
03FC00
03FC00
03FC00
03FC00
03FC00
03FC00
03FC00
03FC00
03FC00
03FC00
03FC00
03FC00
03FC00
03FC00
03FC00
03FC00
03FC00
03FC00
03FC00
03FC00
03FC00
ENDCHAR
STARTCHAR 00F0
ENCODING 240
SWIDTH 600 0
DWIDTH 40 0
BBX 34 53 3 -1
BITMAP
0000008000
000001C000
000F03E000
000FF7F000
001FFFF000
001FFFF000
001FFFE000
001FFFC000
0007FFE000
0000FFF000
0001FFF800
0001FFF800
0003FFFC00
0001F9FC00
0000F1FE00
000060FE00
0000007F00
0000007F00
000FF83F00
007FFF3F80
01FFFFFF80
03FFFFFF80
07FFFFFF80
0FFFFFFF80
1FFFFFFF80
3FFC0FFFC0
3FE003FFC0
7FC001FFC0
7F8000FFC0
FF80007FC0
FF00007FC0
FF00003FC0
FF00003FC0
FF00003FC0
FF00003FC0
FF00003FC0
FF00003FC0
FF00003FC0
FF00003FC0
FF00007FC0
FF80007F80
7F80007F80
7FC000FF80
7FC001FF80
3FF003FF00
3FFC0FFE00
1FFFFFFE00
0FFFFFFC00
07FFFFF800
03FFFFF000
01FFFFE000
007FFF8000
000FFC0000
ENDCHAR
STARTCHAR 00F1
ENCODING 241
SWIDTH 630 0
DWIDTH 42 0
BBX 33 52 5 0
BITMAP
00F0000000
03FE03E000
07FF03E000
07FFC3F000
0FFFE3F000
0FFFFFF000
0FC7FFE000
0F83FFE000
0F80FFE000
07C07FC000
00001F0000
0000000000
0000000000
0000000000
0000000000
0003FE0000
FE1FFF8000
FE3FFFE000
FEFFFFF000
FFFFFFF800
FFFFFFFC00
FFFFFFFC00
FFFFFFFE00
FFF00FFE00
FFE007FF00
FFC003FF00
FF8001FF00
FF8001FF00
FF0000FF00
FF0000FF80
FF0000FF80
FF0000FF80
FF0000FF80
FF00007F80
FF00007F80
FF00007F80
FF00007F80
FF00007F80
FF00007F80
FF00007F80
FF00007F80
FF00007F80
FF00007F80
FF00007F80
FF00007F80
FF00007F80
FF00007F80
FF00007F80
FF00007F80
FF00007F80
FF00007F80
FF00007F80
ENDCHAR
STARTCHAR 00F2
ENCODING 242
SWIDTH 615 0
DWIDTH 41 0
BBX 36 55 3 -1
BITMAP
007E000000
007F000000
003F000000
003F000000
001F800000
001F800000
000FC00000
000FC00000
000FC00000
0007E00000
0007E00000
0003F00000
0003F00000
0000000000
0000000000
0000000000
0000000000
0007FC0000
003FFF8000
00FFFFE000
01FFFFF800
07FFFFFC00
0FFFFFFE00
0FFFFFFF00
1FFFFFFF00
3FF803FF80
3FF001FF80
7FE000FFC0
7FC0007FC0
7F80003FE0
FF80003FE0
FF80003FE0
FF00001FE0
FF00001FE0
FF00001FE0
FF00001FF0
FF00001FF0
FF00001FE0
FF00001FE0
FF00001FE0
FF80003FE0
FF80003FE0
7F80003FE0
7FC0007FC0
7FE000FFC0
3FF001FF80
3FF803FF80
1FFFFFFF00
0FFFFFFF00
0FFFFFFE00
07FFFFFC00
03FFFFF800
00FFFFE000
003FFF8000
0007FC0000
ENDCHAR
STARTCHAR 00F3
ENCODING 243
SWIDTH 615 0
DWIDTH 41 0
BBX 36 55 3 -1
BITMAP
00000FC000
00001F8000
00001F8000
00001F8000
00003F0000
00003F0000
00007E0000
00007E0000
0000FE0000
0000FC0000
0000FC0000
0001F80000
0001F80000
0000000000
0000000000
0000000000
0000000000
0007FC0000
003FFF8000
00FFFFE000
01FFFFF800
07FFFFFC00
0FFFFFFE00
0FFFFFFF00
1FFFFFFF00
3FF803FF80
3FF001FF80
7FE000FFC0
7FC0007FC0
7F80003FE0
FF80003FE0
FF80003FE0
FF00001FE0
FF00001FE0
FF00001FE0
FF00001FF0
FF00001FF0
FF00001FE0
FF00001FE0
FF00001FE0
FF80003FE0
FF80003FE0
7F80003FE0
7FC0007FC0
7FE000FFC0
3FF001FF80
3FF803FF80
1FFFFFFF00
0FFFFFFF00
0FFFFFFE00
07FFFFFC00
03FFFFF800
00FFFFE000
003FFF8000
0007FC0000
ENDCHAR
STARTCHAR 00F4
ENCODING 244
SWIDTH 615 0
DWIDTH 41 0
BBX 36 53 3 -1
BITMAP
0003F80000
0007FC0000
000FFE0000
000FFF0000
001FFF0000
003FBF8000
007F1FC000
00FF0FE000
01FE0FF000
03FC07F800
07F803FC00
0000000000
0000000000
0000000000
0000000000
0007FC0000
003FFF8000
00FFFFE000
01FFFFF800
07FFFFFC00
0FFFFFFE00
0FFFFFFF00
1FFFFFFF00
3FF803FF80
3FF001FF80
7FE000FFC0
7FC0007FC0
7F80003FE0
FF80003FE0
FF80003FE0
FF00001FE0
FF00001FE0
FF00001FE0
FF00001FF0
FF00001FF0
FF00001FE0
FF00001FE0
FF00001FE0
FF80003FE0
FF80003FE0
7F80003FE0
7FC0007FC0
7FE000FFC0
3FF001FF80
3FF803FF80
1FFFFFFF00
0FFFFFFF00
0FFFFFFE00
07FFFFFC00
03FFFFF800
00FFFFE000
003FFF8000
0007FC0000
ENDCHAR
STARTCHAR 00F5
ENCODING 245
SWIDTH 615 0
DWIDTH 41 0
BBX 36 53 3 -1
BITMAP
003C000000
00FF00F800
01FFC0F800
03FFE0F800
03FFF8F800
03FFFFF800
03F3FFF800
03E0FFF800
03E07FF000
03E01FE000
000007C000
0000000000
0000000000
0000000000
0000000000
0007FC0000
003FFF8000
00FFFFE000
01FFFFF800
07FFFFFC00
0FFFFFFE00
0FFFFFFF00
1FFFFFFF00
3FF803FF80
3FF001FF80
7FE000FFC0
7FC0007FC0
7F80003FE0
FF80003FE0
FF80003FE0
FF00001FE0
FF00001FE0
FF00001FE0
FF00001FF0
FF00001FF0
FF00001FE0
FF00001FE0
FF00001FE0
FF80003FE0
FF80003FE0
7F80003FE0
7FC0007FC0
7FE000FFC0
3FF001FF80
3FF803FF80
1FFFFFFF00
0FFFFFFF00
0FFFFFFE00
07FFFFFC00
03FFFFF800
00FFFFE000
003FFF8000
0007FC0000
ENDCHAR
STARTCHAR 00F6
ENCODING 246
SWIDTH 615 0
DWIDTH 41 0
BBX 36 50 3 -1
BITMAP
01FC07F000
01FC07F000
01FC07F000
01FC07F000
01FC07F000
01FC07F000
01FC07F000
0000000000
0000000000
0000000000
0000000000
0000000000
0007FC0000
003FFF8000
00FFFFE000
01FFFFF800
07FFFFFC00
0FFFFFFE00
0FFFFFFF00
1FFFFFFF00
3FF803FF80
3FF001FF80
7FE000FFC0
7FC0007FC0
7F80003FE0
FF80003FE0
FF80003FE0
FF00001FE0
FF00001FE0
FF00001FE0
FF00001FF0
FF00001FF0
FF00001FE0
FF00001FE0
FF00001FE0
FF80003FE0
FF80003FE0
7F80003FE0
7FC0007FC0
7FE000FFC0
3FF001FF80
3FF803FF80
1FFFFFFF00
0FFFFFFF00
0FFFFFFE00
07FFFFFC00
03FFFFF800
00FFFFE000
003FFF8000
0007FC0000
ENDCHAR
STARTCHAR 00F7
ENCODING 247
SWIDTH 540 0
DWIDTH 36 0
BBX 28 29 4 10
BITMAP
003FC000
003FC000
003FC000
003FC000
003FC000
003FC000
003FC000
003FC000
00000000
00000000
00000000
00000000
FFFFFFF0
FFFFFFF0
FFFFFFF0
FFFFFFF0
FFFFFFF0
FFFFFFF0
00000000
00000000
00000000
003FC000
003FC000
003FC000
003FC000
003FC000
003FC000
003FC000
003FC000
ENDCHAR
STARTCHAR 00F8
ENCODING 248
SWIDTH 615 0
DWIDTH 41 0
BBX 37 38 2 -1
BITMAP
0003FE0080
001FFFC1C0
007FFFF3E0
00FFFFFFF0
03FFFFFFF8
07FFFFFFF8
07FFFFFFF0
0FFFFFFFE0
1FFC01FFC0
1FF800FFE0
3FF001FFE0
3FE003FFE0
3FC007FFF0
7FC00FFFF0
7FC01FFFF0
7F803FCFF0
7F807F8FF0
7F80FF0FF0
7F81FE0FF8
7F83FC0FF8
7F87F80FF0
7F8FF00FF0
7F9FE00FF0
7FFFC01FF0
7FFF801FF0
3FFF001FF0
3FFE003FE0
3FFC007FE0
1FF800FFC0
1FFC01FFC0
3FFFFFFF80
7FFFFFFF80
FFFFFFFF00
7FFFFFFE00
3FFFFFFC00
1E7FFFF000
0E1FFFC000
0403FE0000
ENDCHAR
STARTCHAR 00F9
ENCODING 249
SWIDTH 630 0
DWIDTH 42 0
BBX 33 55 4 -1
BITMAP
00FE000000
007E000000
007E000000
003F000000
003F000000
003F800000
001F800000
001F800000
000FC00000
000FC00000
0007E00000
0007E00000
0007E00000
0000000000
0000000000
0000000000
0000000000
0000000000
FF00007F80
FF00007F80
FF00007F80
FF00007F80
FF00007F80
FF00007F80
FF00007F80
FF00007F80
FF00007F80
FF00007F80
FF00007F80
FF00007F80
FF00007F80
FF00007F80
FF00007F80
FF00007F80
FF00007F80
FF00007F80
FF00007F80
FF00007F80
FF00007F80
FF00007F80
FF80007F80
FF8000FF80
FF8000FF80
FFC001FF80
7FC001FF80
7FE003FF80
7FF807FF80
3FFFFFFF80
3FFFFFFF80
1FFFFFFF80
0FFFFFBF80
07FFFF3F80
03FFFE3F80
01FFF83F80
003FC00000
ENDCHAR
STARTCHAR 00FA
ENCODING 250
SWIDTH 630 0
DWIDTH 42 0
BBX 33 55 4 -1
BITMAP
00003F0000
00003F0000
00007F0000
00007E0000
00007E0000
0000FC0000
0000FC0000
0001F80000
0001F80000
0001F80000
0003F00000
0003F00000
0007E00000
0000000000
0000000000
0000000000
0000000000
0000000000
FF00007F80
FF00007F80
FF00007F80
FF00007F80
FF00007F80
FF00007F80
FF00007F80
FF00007F80
FF00007F80
FF00007F80
FF00007F80
FF00007F80
FF00007F80
FF00007F80
FF00007F80
FF00007F80
FF00007F80
FF00007F80
FF00007F80
FF00007F80
FF00007F80
FF00007F80
FF80007F80
FF8000FF80
FF8000FF80
FFC001FF80
7FC001FF80
7FE003FF80
7FF807FF80
3FFFFFFF80
3FFFFFFF80
1FFFFFFF80
0FFFFFBF80
07FFFF3F80
03FFFE3F80
01FFF83F80
003FC00000
ENDCHAR
STARTCHAR 00FB
ENCODING 251
SWIDTH 630 0
DWIDTH 42 0
BBX 33 53 4 -1
BITMAP
0007F00000
000FF80000
001FFC0000
003FFC0000
003FFE0000
007F7F0000
00FE3F8000
01FC3FC000
03FC1FE000
07F80FF000
0FF007F000
0000000000
0000000000
0000000000
0000000000
0000000000
FF00007F80
FF00007F80
FF00007F80
FF00007F80
FF00007F80
FF00007F80
FF00007F80
FF00007F80
FF00007F80
FF00007F80
FF00007F80
FF00007F80
FF00007F80
FF00007F80
FF00007F80
FF00007F80
FF00007F80
FF00007F80
FF00007F80
FF00007F80
FF00007F80
FF00007F80
FF80007F80
FF8000FF80
FF8000FF80
FFC001FF80
7FC001FF80
7FE003FF80
7FF807FF80
3FFFFFFF80
3FFFFFFF80
1FFFFFFF80
0FFFFFBF80
07FFFF3F80
03FFFE3F80
01FFF83F80
003FC00000
ENDCHAR
STARTCHAR 00FC
ENCODING 252
SWIDTH 630 0
DWIDTH 42 0
BBX 33 50 4 -1
BITMAP
03F80FE000
03F80FE000
03F80FE000
03F80FE000
03F80FE000
03F80FE000
03F80FE000
0000000000
0000000000
0000000000
0000000000
0000000000
0000000000
FF00007F80
FF00007F80
FF00007F80
FF00007F80
FF00007F80
FF00007F80
FF00007F80
FF00007F80
FF00007F80
FF00007F80
FF00007F80
FF00007F80
FF00007F80
FF00007F80
FF00007F80
FF00007F80
FF00007F80
FF00007F80
FF00007F80
FF00007F80
FF00007F80
FF00007F80
FF80007F80
FF8000FF80
FF8000FF80
FFC001FF80
7FC001FF80
7FE003FF80
7FF807FF80
3FFFFFFF80
3FFFFFFF80
1FFFFFFF80
0FFFFFBF80
07FFFF3F80
03FFFE3F80
01FFF83F80
003FC00000
ENDCHAR
STARTCHAR 00FD
ENCODING 253
SWIDTH 555 0
DWIDTH 37 0
BBX 36 70 1 -16
BITMAP
00000FC000
00000FC000
00001F8000
00001F8000
00003F8000
00003F0000
00003F0000
00007E0000
00007E0000
0000FE0000
0000FC0000
0000FC0000
0001F80000
0000000000
0000000000
0000000000
0000000000
0000000000
FF00000FF0
FF80001FE0
7F80001FE0
7FC0001FE0
3FC0003FC0
3FC0003FC0
3FE0007F80
1FE0007F80
1FE0007F80
0FF000FF00
0FF000FF00
0FF800FF00
07F801FE00
07F801FE00
03FC03FC00
03FC03FC00
03FE03FC00
01FE07F800
01FE07F800
00FF07F000
00FF0FF000
007F8FF000
007F9FE000
007F9FE000
003FDFE000
003FFFC000
001FFFC000
001FFF8000
001FFF8000
000FFF8000
000FFF0000
0007FF0000
0007FE0000
0007FE0000
0003FE0000
0003FC0000
0003FC0000
0003FC0000
0007F80000
0007F80000
0007F00000
000FF00000
000FF00000
001FE00000
001FE00000
001FC00000
003FC00000
003FC00000
003F800000
007F800000
007F800000
007F000000
ENDCHAR
STARTCHAR 00FE
ENCODING 254
SWIDTH 615 0
DWIDTH 41 0
BBX 33 64 5 -16
BITMAP
FF00000000
FF00000000
FF00000000
FF00000000
FF00000000
FF00000000
FF00000000
FF00000000
FF00000000
FF00000000
FF00000000
FF0FF80000
FF3FFF0000
FFFFFF8000
FFFFFFE000
FFFFFFF000
FFFFFFF800
FFFFFFFC00
FFF83FFC00
FFE00FFE00
FFC003FE00
FF8003FF00
FF0001FF00
FF0000FF80
FE0000FF80
FE0000FF80
FE00007F80
FE00007F80
FE00007F80
FE00007F80
FE00007F80
FE00007F80
FE00007F80
FE00007F80
FE0000FF80
FE0000FF80
FF0000FF80
FF0001FF00
FF8001FF00
FFC003FE00
FFE00FFE00
FFF83FFC00
FFFFFFFC00
FFFFFFF800
FFFFFFF000
FFFFFFE000
FFFFFFC000
FF3FFF0000
FF07F80000
FF00000000
FF00000000
FF00000000
FF00000000
FF00000000
FF00000000
FF00000000
FF00000000
FF00000000
FF00000000
FF00000000
FF00000000
FF00000000
FF00000000
FF00000000
ENDCHAR
STARTCHAR 00FF
ENCODING 255
SWIDTH 555 0
DWIDTH 37 0
BBX 36 65 1 -16
BITMAP
00FE07F800
00FE07F800
00FE07F800
00FE07F800
00FE07F800
00FE07F800
00FE07F800
0000000000
0000000000
0000000000
0000000000
0000000000
0000000000
FF00000FF0
FF80001FE0
7F80001FE0
7FC0001FE0
3FC0003FC0
3FC0003FC0
3FE0007F80
1FE0007F80
1FE0007F80
0FF000FF00
0FF000FF00
0FF800FF00
07F801FE00
07F801FE00
03FC03FC00
03FC03FC00
03FE03FC00
01FE07F800
01FE07F800
00FF07F000
00FF0FF000
007F8FF000
007F9FE000
007F9FE000
003FDFE000
003FFFC000
001FFFC000
001FFF8000
001FFF8000
000FFF8000
000FFF0000
0007FF0000
0007FE0000
0007FE0000
0003FE0000
0003FC0000
0003FC0000
0003FC0000
0007F80000
0007F80000
0007F00000
000FF00000
000FF00000
001FE00000
001FE00000
001FC00000
003FC00000
003FC00000
003F800000
007F800000
007F800000
007F000000
ENDCHAR
ENDFONT
